<svg xmlns="http://www.w3.org/2000/svg" xmlns:xlink="http://www.w3.org/1999/xlink" width="100" zoomAndPan="magnify" viewBox="0 0 75 74.999997" height="100" preserveAspectRatio="xMidYMid meet" version="1.0"><defs><clipPath id="0dace83636"><path d="M 11.980469 56 L 62.980469 56 L 62.980469 62.980469 L 11.980469 62.980469 Z M 11.980469 56 " clip-rule="nonzero"/></clipPath><clipPath id="54cadef061"><path d="M 11.980469 43 L 21 43 L 21 55 L 11.980469 55 Z M 11.980469 43 " clip-rule="nonzero"/></clipPath><clipPath id="93850133b3"><path d="M 54 31 L 62.980469 31 L 62.980469 55 L 54 55 Z M 54 31 " clip-rule="nonzero"/></clipPath><clipPath id="92bedcdb1a"><path d="M 25 11.980469 L 50 11.980469 L 50 28 L 25 28 Z M 25 11.980469 " clip-rule="nonzero"/></clipPath></defs><path fill="#fb7439" d="M 18.601562 38.84375 C 18.625 38.984375 18.636719 39.125 18.636719 39.273438 C 18.636719 40.621094 17.542969 41.714844 16.195312 41.714844 C 14.847656 41.714844 13.757812 40.621094 13.757812 39.273438 C 13.757812 37.925781 14.847656 36.832031 16.195312 36.832031 C 16.917969 36.832031 17.570312 37.148438 18.015625 37.648438 C 19.808594 36.746094 28 32.628906 28 32.628906 C 27.972656 32.480469 27.957031 32.328125 27.957031 32.171875 C 27.957031 30.824219 29.050781 29.730469 30.398438 29.730469 C 31.71875 29.730469 32.796875 30.785156 32.835938 32.097656 C 34.957031 32.628906 42.441406 34.496094 42.480469 34.507812 C 42.902344 33.777344 43.695312 33.28125 44.597656 33.28125 L 44.601562 33.28125 C 45.230469 33.28125 45.804688 33.523438 46.238281 33.914062 C 46.238281 33.914062 56.457031 27.527344 56.457031 27.527344 C 56.394531 27.3125 56.359375 27.082031 56.359375 26.847656 C 56.359375 25.5 57.453125 24.40625 58.800781 24.40625 C 60.148438 24.40625 61.242188 25.5 61.242188 26.847656 C 61.242188 28.195312 60.148438 29.289062 58.800781 29.289062 C 58.167969 29.289062 57.59375 29.050781 57.160156 28.65625 L 46.945312 35.042969 C 47.007812 35.257812 47.039062 35.488281 47.039062 35.722656 C 47.039062 37.070312 45.945312 38.164062 44.597656 38.164062 C 43.277344 38.164062 42.199219 37.109375 42.160156 35.800781 L 32.515625 33.386719 C 32.09375 34.121094 31.300781 34.613281 30.398438 34.613281 C 29.683594 34.613281 29.042969 34.308594 28.597656 33.820312 Z M 16.195312 38.164062 C 15.585938 38.164062 15.085938 38.660156 15.085938 39.273438 C 15.085938 39.886719 15.585938 40.382812 16.195312 40.382812 C 16.808594 40.382812 17.304688 39.886719 17.304688 39.273438 C 17.304688 38.660156 16.808594 38.164062 16.195312 38.164062 Z M 31.507812 32.171875 C 31.507812 31.5625 31.011719 31.0625 30.398438 31.0625 C 29.785156 31.0625 29.289062 31.5625 29.289062 32.171875 C 29.289062 32.351562 29.332031 32.519531 29.40625 32.667969 C 29.585938 33.03125 29.964844 33.28125 30.398438 33.28125 C 31.011719 33.28125 31.507812 32.785156 31.507812 32.171875 Z M 58.800781 25.738281 C 58.1875 25.738281 57.691406 26.234375 57.691406 26.847656 C 57.691406 27.0625 57.753906 27.265625 57.859375 27.433594 C 58.054688 27.75 58.402344 27.957031 58.800781 27.957031 C 59.414062 27.957031 59.910156 27.460938 59.910156 26.847656 C 59.910156 26.234375 59.414062 25.738281 58.800781 25.738281 Z M 45.539062 35.136719 C 45.34375 34.824219 44.996094 34.613281 44.597656 34.613281 C 43.988281 34.613281 43.488281 35.109375 43.488281 35.722656 C 43.488281 36.335938 43.988281 36.832031 44.597656 36.832031 C 45.210938 36.832031 45.707031 36.335938 45.707031 35.722656 C 45.707031 35.507812 45.648438 35.304688 45.539062 35.136719 Z M 45.539062 35.136719 " fill-opacity="1" fill-rule="evenodd"/><g clip-path="url(#0dace83636)"><path fill="#fb7439" d="M 63.015625 57.023438 L 63.015625 62.351562 C 63.015625 62.71875 62.71875 63.015625 62.351562 63.015625 L 12.644531 63.015625 C 12.277344 63.015625 11.980469 62.71875 11.980469 62.351562 L 11.980469 57.023438 C 11.980469 56.65625 12.277344 56.359375 12.644531 56.359375 L 62.351562 56.359375 C 62.71875 56.359375 63.015625 56.65625 63.015625 57.023438 Z M 61.683594 57.691406 C 61.683594 57.691406 13.3125 57.691406 13.3125 57.691406 L 13.3125 61.683594 C 18.78125 61.683594 56.21875 61.683594 61.683594 61.683594 Z M 61.683594 57.691406 " fill-opacity="1" fill-rule="evenodd"/></g><g clip-path="url(#54cadef061)"><path fill="#fb7439" d="M 20.414062 44.597656 L 20.414062 53.472656 C 20.414062 53.84375 20.113281 54.140625 19.746094 54.140625 L 12.644531 54.140625 C 12.277344 54.140625 11.980469 53.84375 11.980469 53.472656 L 11.980469 44.597656 C 11.980469 44.230469 12.277344 43.933594 12.644531 43.933594 L 19.746094 43.933594 C 20.113281 43.933594 20.414062 44.230469 20.414062 44.597656 Z M 19.082031 45.265625 L 13.3125 45.265625 L 13.3125 52.808594 L 19.082031 52.808594 Z M 19.082031 45.265625 " fill-opacity="1" fill-rule="evenodd"/></g><path fill="#fb7439" d="M 34.613281 37.5 L 34.613281 53.472656 C 34.613281 53.84375 34.316406 54.140625 33.949219 54.140625 L 26.847656 54.140625 C 26.480469 54.140625 26.183594 53.84375 26.183594 53.472656 L 26.183594 37.5 C 26.183594 37.128906 26.480469 36.832031 26.847656 36.832031 L 33.949219 36.832031 C 34.316406 36.832031 34.613281 37.128906 34.613281 37.5 Z M 33.28125 38.164062 L 27.511719 38.164062 L 27.511719 52.808594 L 33.28125 52.808594 Z M 33.28125 38.164062 " fill-opacity="1" fill-rule="evenodd"/><path fill="#fb7439" d="M 48.816406 41.046875 L 48.816406 53.472656 C 48.816406 53.84375 48.515625 54.140625 48.148438 54.140625 L 41.046875 54.140625 C 40.679688 54.140625 40.382812 53.84375 40.382812 53.472656 L 40.382812 41.046875 C 40.382812 40.679688 40.679688 40.382812 41.046875 40.382812 L 48.148438 40.382812 C 48.515625 40.382812 48.816406 40.679688 48.816406 41.046875 Z M 47.484375 41.714844 C 47.484375 41.714844 41.714844 41.714844 41.714844 41.714844 L 41.714844 52.808594 C 41.714844 52.808594 47.484375 52.808594 47.484375 52.808594 Z M 47.484375 41.714844 " fill-opacity="1" fill-rule="evenodd"/><g clip-path="url(#93850133b3)"><path fill="#fb7439" d="M 63.015625 32.171875 L 63.015625 53.472656 C 63.015625 53.84375 62.71875 54.140625 62.351562 54.140625 L 55.25 54.140625 C 54.882812 54.140625 54.582031 53.84375 54.582031 53.472656 L 54.582031 32.171875 C 54.582031 31.804688 54.882812 31.507812 55.25 31.507812 L 62.351562 31.507812 C 62.71875 31.507812 63.015625 31.804688 63.015625 32.171875 Z M 61.683594 32.839844 C 61.683594 32.839844 55.914062 32.839844 55.914062 32.839844 L 55.914062 52.808594 L 61.683594 52.808594 Z M 61.683594 32.839844 " fill-opacity="1" fill-rule="evenodd"/></g><g clip-path="url(#92bedcdb1a)"><path fill="#fb7439" d="M 37.5 11.980469 C 40.082031 11.980469 42.480469 13.167969 44.417969 14.613281 C 47.25 16.726562 49.089844 19.367188 49.089844 19.367188 C 49.25 19.59375 49.25 19.898438 49.089844 20.128906 C 49.089844 20.128906 47.25 22.769531 44.417969 24.882812 C 42.480469 26.328125 40.082031 27.511719 37.5 27.511719 C 34.914062 27.511719 32.515625 26.328125 30.578125 24.882812 C 27.746094 22.769531 25.90625 20.128906 25.90625 20.128906 C 25.746094 19.898438 25.746094 19.59375 25.90625 19.367188 C 25.90625 19.367188 27.746094 16.726562 30.578125 14.613281 C 32.515625 13.167969 34.914062 11.980469 37.5 11.980469 Z M 37.5 13.3125 C 35.207031 13.3125 33.09375 14.398438 31.375 15.679688 C 29.355469 17.1875 27.875 18.976562 27.28125 19.746094 C 27.875 20.515625 29.355469 22.308594 31.375 23.8125 C 33.09375 25.097656 35.207031 26.183594 37.5 26.183594 C 39.789062 26.183594 41.902344 25.097656 43.621094 23.8125 C 45.640625 22.308594 47.125 20.515625 47.714844 19.746094 C 47.125 18.976562 45.640625 17.1875 43.621094 15.679688 C 41.902344 14.398438 39.789062 13.3125 37.5 13.3125 Z M 37.5 13.3125 " fill-opacity="1" fill-rule="evenodd"/></g><path fill="#fb7439" d="M 37.5 14.617188 C 40.332031 14.617188 42.628906 16.914062 42.628906 19.746094 C 42.628906 22.578125 40.332031 24.878906 37.5 24.878906 C 34.667969 24.878906 32.367188 22.578125 32.367188 19.746094 C 32.367188 16.914062 34.667969 14.617188 37.5 14.617188 Z M 37.5 15.945312 C 35.402344 15.945312 33.699219 17.648438 33.699219 19.746094 C 33.699219 21.84375 35.402344 23.546875 37.5 23.546875 C 39.59375 23.546875 41.296875 21.84375 41.296875 19.746094 C 41.296875 17.648438 39.59375 15.945312 37.5 15.945312 Z M 37.5 15.945312 " fill-opacity="1" fill-rule="evenodd"/><path fill="#fb7439" d="M 37.5 17.460938 C 38.761719 17.460938 39.785156 18.484375 39.785156 19.746094 C 39.785156 21.007812 38.761719 22.035156 37.5 22.035156 C 36.234375 22.035156 35.210938 21.007812 35.210938 19.746094 C 35.210938 18.484375 36.234375 17.460938 37.5 17.460938 Z M 37.5 18.789062 C 36.96875 18.789062 36.542969 19.21875 36.542969 19.746094 C 36.542969 20.273438 36.96875 20.703125 37.5 20.703125 C 38.027344 20.703125 38.453125 20.273438 38.453125 19.746094 C 38.453125 19.21875 38.027344 18.789062 37.5 18.789062 Z M 37.5 18.789062 " fill-opacity="1" fill-rule="evenodd"/></svg>