<svg xmlns="http://www.w3.org/2000/svg" xmlns:xlink="http://www.w3.org/1999/xlink" width="100" zoomAndPan="magnify" viewBox="0 0 75 74.999997" height="100" preserveAspectRatio="xMidYMid meet" version="1.0"><defs><clipPath id="7cbfdcb678"><path d="M 14.203125 11.128906 L 65.203125 11.128906 L 65.203125 63.628906 L 14.203125 63.628906 Z M 14.203125 11.128906 " clip-rule="nonzero"/></clipPath></defs><g clip-path="url(#7cbfdcb678)"><path fill="#fb7439" d="M 36.867188 15.71875 C 37.246094 15.703125 37.625 15.691406 38.007812 15.691406 C 51.136719 15.691406 61.800781 26.355469 61.800781 39.484375 C 61.800781 40.0625 61.777344 40.632812 61.738281 41.199219 C 63.941406 42.527344 65.417969 44.941406 65.417969 47.691406 C 65.417969 51.863281 62.015625 55.265625 57.847656 55.265625 C 57.210938 55.265625 56.59375 55.183594 56.007812 55.039062 C 51.640625 60.082031 45.195312 63.277344 38.007812 63.277344 C 34.324219 63.277344 30.835938 62.4375 27.722656 60.941406 C 26.335938 62.703125 24.1875 63.832031 21.769531 63.832031 C 17.589844 63.832031 14.199219 60.441406 14.199219 56.261719 C 14.199219 53.933594 15.25 51.851562 16.898438 50.464844 C 15.1875 47.179688 14.21875 43.445312 14.21875 39.484375 C 14.21875 32.835938 16.949219 26.824219 21.351562 22.503906 C 21.03125 21.609375 20.859375 20.648438 20.859375 19.648438 C 20.859375 14.960938 24.65625 11.160156 29.34375 11.160156 C 32.613281 11.160156 35.453125 13.011719 36.867188 15.71875 Z M 22.203125 24.238281 C 18.390625 28.1875 16.042969 33.566406 16.042969 39.484375 C 16.042969 43.074219 16.90625 46.464844 18.4375 49.460938 C 19.445312 48.964844 20.574219 48.6875 21.769531 48.6875 C 25.953125 48.6875 29.34375 52.078125 29.34375 56.261719 C 29.34375 57.367188 29.105469 58.421875 28.675781 59.371094 C 31.507812 60.703125 34.671875 61.449219 38.007812 61.449219 C 44.410156 61.449219 50.179688 58.703125 54.195312 54.324219 C 51.859375 53.03125 50.273438 50.539062 50.273438 47.691406 C 50.273438 43.523438 53.675781 40.121094 57.847656 40.121094 C 58.578125 40.121094 59.28125 40.222656 59.953125 40.417969 C 59.964844 40.109375 59.972656 39.796875 59.972656 39.484375 C 59.972656 27.363281 50.128906 17.519531 38.007812 17.519531 C 37.859375 17.519531 37.710938 17.523438 37.5625 17.523438 C 37.738281 18.203125 37.828125 18.914062 37.828125 19.648438 C 37.828125 24.332031 34.03125 28.132812 29.34375 28.132812 C 26.347656 28.132812 23.714844 26.582031 22.203125 24.238281 Z M 40.449219 29.253906 C 41.535156 29.511719 42.566406 29.941406 43.515625 30.523438 L 45.507812 29.636719 L 47.855469 31.984375 L 46.972656 33.976562 C 47.554688 34.925781 47.984375 35.957031 48.242188 37.042969 L 50.273438 37.828125 L 50.273438 41.144531 L 48.242188 41.925781 C 47.984375 43.011719 47.554688 44.042969 46.972656 44.992188 L 47.855469 46.984375 L 45.507812 49.332031 L 43.515625 48.449219 C 42.570312 49.03125 41.535156 49.460938 40.449219 49.71875 L 39.667969 51.75 L 36.351562 51.75 L 35.566406 49.71875 C 34.480469 49.460938 33.449219 49.027344 32.5 48.449219 L 30.507812 49.332031 L 28.164062 46.984375 L 29.046875 44.992188 C 28.464844 44.046875 28.035156 43.011719 27.773438 41.925781 L 25.742188 41.144531 L 25.742188 37.828125 L 27.773438 37.042969 C 28.035156 35.957031 28.464844 34.925781 29.046875 33.976562 L 28.164062 31.984375 L 30.507812 29.636719 L 32.5 30.523438 C 33.449219 29.941406 34.480469 29.511719 35.566406 29.253906 L 36.351562 27.21875 L 39.667969 27.21875 Z M 38.007812 33.695312 C 34.808594 33.695312 32.21875 36.285156 32.21875 39.484375 C 32.21875 42.683594 34.808594 45.277344 38.007812 45.277344 C 41.207031 45.277344 43.800781 42.683594 43.800781 39.484375 C 43.800781 36.285156 41.207031 33.695312 38.007812 33.695312 Z M 56.933594 43.183594 C 56.808594 43.214844 56.6875 43.253906 56.566406 43.300781 C 55.476562 43.730469 54.695312 44.675781 54.757812 45.953125 C 54.835938 47.613281 56.308594 48.339844 57.707031 48.566406 C 58.046875 48.621094 58.410156 48.699219 58.730469 48.847656 C 59.035156 48.984375 59.308594 49.1875 59.355469 49.574219 C 59.398438 49.929688 59.164062 50.144531 58.886719 50.28125 C 58.59375 50.425781 58.246094 50.492188 57.925781 50.5 L 57.921875 50.5 C 57.21875 50.515625 56.484375 50.226562 56.304688 49.507812 C 56.183594 49.019531 55.6875 48.722656 55.199219 48.84375 C 54.707031 48.964844 54.410156 49.460938 54.53125 49.949219 C 54.835938 51.171875 55.796875 51.945312 56.933594 52.21875 L 56.933594 52.484375 C 56.933594 52.988281 57.339844 53.398438 57.847656 53.398438 C 58.351562 53.398438 58.757812 52.988281 58.757812 52.484375 L 58.757812 52.230469 C 60.117188 51.9375 61.363281 50.96875 61.167969 49.355469 C 60.964844 47.664062 59.421875 46.996094 58.003906 46.761719 L 58 46.761719 C 57.6875 46.710938 57.359375 46.636719 57.074219 46.496094 C 56.820312 46.371094 56.597656 46.195312 56.582031 45.867188 C 56.5625 45.433594 56.867188 45.148438 57.238281 45.003906 C 57.921875 44.734375 58.878906 44.894531 59.234375 45.746094 C 59.429688 46.210938 59.964844 46.429688 60.429688 46.234375 C 60.894531 46.039062 61.113281 45.503906 60.917969 45.039062 C 60.484375 44.007812 59.664062 43.40625 58.757812 43.171875 L 58.757812 42.902344 C 58.757812 42.398438 58.351562 41.988281 57.847656 41.988281 C 57.339844 41.988281 56.933594 42.398438 56.933594 42.902344 Z M 20.859375 51.761719 L 20.859375 56.261719 C 20.859375 56.585938 21.03125 56.886719 21.3125 57.050781 L 24.570312 58.933594 C 25.007812 59.1875 25.566406 59.035156 25.820312 58.597656 C 26.070312 58.164062 25.921875 57.601562 25.484375 57.351562 L 22.683594 55.734375 L 22.683594 51.761719 C 22.683594 51.257812 22.277344 50.847656 21.769531 50.847656 C 21.265625 50.847656 20.859375 51.257812 20.859375 51.761719 Z M 34.253906 24.144531 C 35.339844 22.957031 36.003906 21.378906 36.003906 19.648438 C 36.003906 15.96875 33.023438 12.988281 29.34375 12.988281 C 25.664062 12.988281 22.683594 15.96875 22.683594 19.648438 C 22.683594 21.378906 23.347656 22.957031 24.433594 24.144531 C 25.210938 22.191406 27.117188 20.8125 29.34375 20.8125 C 31.570312 20.8125 33.476562 22.191406 34.253906 24.144531 Z M 29.34375 20.378906 C 27.871094 20.378906 26.667969 19.175781 26.667969 17.703125 C 26.667969 16.230469 27.871094 15.027344 29.34375 15.027344 C 30.816406 15.027344 32.019531 16.230469 32.019531 17.703125 C 32.019531 19.175781 30.816406 20.378906 29.34375 20.378906 Z M 29.34375 20.378906 " fill-opacity="1" fill-rule="evenodd"/></g></svg>