<svg xmlns="http://www.w3.org/2000/svg" xmlns:xlink="http://www.w3.org/1999/xlink" width="100" zoomAndPan="magnify" viewBox="0 0 75 74.999997" height="100" preserveAspectRatio="xMidYMid meet" version="1.0"><defs><clipPath id="bc8744abe8"><path d="M 11.015625 11.015625 L 64 11.015625 L 64 64 L 11.015625 64 Z M 11.015625 11.015625 " clip-rule="nonzero"/></clipPath></defs><g clip-path="url(#bc8744abe8)"><path fill="#fb7439" d="M 41.945312 63.972656 L 33.035156 63.972656 C 32.5625 63.972656 32.171875 63.59375 32.171875 63.109375 L 32.171875 59.121094 C 29.980469 58.582031 27.890625 57.71875 25.957031 56.546875 L 23.136719 59.367188 C 22.980469 59.527344 22.757812 59.617188 22.53125 59.617188 C 22.308594 59.617188 22.082031 59.527344 21.925781 59.367188 L 15.625 53.066406 C 15.464844 52.910156 15.375 52.683594 15.375 52.460938 C 15.375 52.234375 15.464844 52.011719 15.625 51.851562 L 18.441406 49.03125 C 17.261719 47.101562 16.398438 45.011719 15.871094 42.820312 L 11.882812 42.820312 C 11.410156 42.820312 11.015625 42.4375 11.015625 41.957031 L 11.015625 33.046875 C 11.015625 32.574219 11.398438 32.183594 11.882812 32.183594 L 15.871094 32.183594 C 16.410156 29.992188 17.273438 27.902344 18.441406 25.96875 L 15.625 23.148438 C 15.285156 22.8125 15.285156 22.261719 15.625 21.925781 L 21.925781 15.625 C 22.261719 15.285156 22.8125 15.285156 23.148438 15.625 L 25.96875 18.441406 C 27.902344 17.261719 29.992188 16.398438 32.183594 15.871094 L 32.183594 11.882812 C 32.183594 11.410156 32.5625 11.015625 33.046875 11.015625 L 41.957031 11.015625 C 42.425781 11.015625 42.820312 11.398438 42.820312 11.882812 L 42.820312 15.871094 C 45.011719 16.410156 47.101562 17.273438 49.03125 18.441406 L 51.851562 15.625 C 52.011719 15.464844 52.234375 15.375 52.460938 15.375 C 52.683594 15.375 52.910156 15.464844 53.066406 15.625 L 59.367188 21.925781 C 59.527344 22.082031 59.617188 22.308594 59.617188 22.53125 C 59.617188 22.757812 59.527344 22.980469 59.367188 23.136719 L 56.546875 25.957031 C 57.726562 27.890625 58.59375 29.980469 59.121094 32.171875 L 63.109375 32.171875 C 63.582031 32.171875 63.972656 32.550781 63.972656 33.035156 L 63.972656 41.945312 C 63.972656 42.417969 63.59375 42.808594 63.109375 42.808594 L 59.121094 42.808594 C 58.582031 45 57.71875 47.089844 56.546875 49.023438 L 59.367188 51.839844 C 59.527344 52 59.617188 52.222656 59.617188 52.449219 C 59.617188 52.671875 59.527344 52.898438 59.367188 53.054688 L 53.066406 59.355469 C 52.910156 59.515625 52.683594 59.605469 52.460938 59.605469 C 52.234375 59.605469 52.011719 59.515625 51.851562 59.355469 L 49.03125 56.539062 C 47.101562 57.71875 45.011719 58.582031 42.820312 59.109375 L 42.820312 63.109375 C 42.808594 63.582031 42.425781 63.972656 41.945312 63.972656 Z M 33.902344 62.242188 L 41.089844 62.242188 L 41.089844 58.4375 C 41.089844 58.03125 41.371094 57.671875 41.777344 57.59375 C 44.246094 57.078125 46.5625 56.109375 48.683594 54.730469 C 49.023438 54.503906 49.480469 54.550781 49.761719 54.839844 L 52.460938 57.535156 L 57.535156 52.460938 L 54.839844 49.761719 C 54.550781 49.472656 54.503906 49.023438 54.730469 48.683594 C 56.109375 46.5625 57.078125 44.234375 57.59375 41.777344 C 57.683594 41.371094 58.03125 41.089844 58.4375 41.089844 L 62.242188 41.089844 L 62.242188 33.902344 L 58.4375 33.902344 C 58.03125 33.902344 57.671875 33.621094 57.59375 33.214844 C 57.078125 30.742188 56.109375 28.429688 54.730469 26.304688 C 54.503906 25.96875 54.550781 25.507812 54.839844 25.226562 L 57.535156 22.53125 L 52.460938 17.453125 L 49.761719 20.148438 C 49.472656 20.441406 49.023438 20.488281 48.683594 20.261719 C 46.5625 18.890625 44.234375 17.925781 41.765625 17.398438 C 41.359375 17.308594 41.078125 16.960938 41.078125 16.554688 L 41.078125 12.746094 L 33.902344 12.746094 L 33.902344 16.554688 C 33.902344 16.960938 33.621094 17.320312 33.214844 17.398438 C 30.753906 17.914062 28.429688 18.882812 26.304688 20.261719 C 25.96875 20.488281 25.507812 20.441406 25.226562 20.148438 L 22.53125 17.453125 L 17.453125 22.53125 L 20.148438 25.226562 C 20.441406 25.519531 20.488281 25.96875 20.261719 26.304688 C 18.890625 28.429688 17.925781 30.753906 17.398438 33.226562 C 17.308594 33.621094 16.960938 33.910156 16.554688 33.910156 L 12.746094 33.910156 L 12.746094 41.089844 L 16.554688 41.089844 C 16.960938 41.089844 17.320312 41.371094 17.398438 41.777344 C 17.914062 44.246094 18.882812 46.5625 20.261719 48.683594 C 20.488281 49.023438 20.441406 49.480469 20.148438 49.761719 L 17.453125 52.460938 L 22.53125 57.535156 L 25.226562 54.839844 C 25.519531 54.550781 25.96875 54.503906 26.304688 54.730469 C 28.429688 56.109375 30.753906 57.078125 33.214844 57.59375 C 33.621094 57.683594 33.902344 58.03125 33.902344 58.4375 Z M 33.902344 62.242188 " fill-opacity="1" fill-rule="nonzero"/></g><path fill="#fb7439" d="M 37.496094 52.875 C 29.015625 52.875 22.117188 45.976562 22.117188 37.496094 C 22.117188 29.015625 29.015625 22.117188 37.496094 22.117188 C 45.976562 22.117188 52.875 29.015625 52.875 37.496094 C 52.875 45.976562 45.976562 52.875 37.496094 52.875 Z M 37.496094 23.847656 C 29.96875 23.847656 23.847656 29.96875 23.847656 37.496094 C 23.847656 45.023438 29.96875 51.144531 37.496094 51.144531 C 45.023438 51.144531 51.144531 45.023438 51.144531 37.496094 C 51.144531 29.96875 45.023438 23.847656 37.496094 23.847656 Z M 37.496094 23.847656 " fill-opacity="1" fill-rule="nonzero"/><path fill="#fb7439" d="M 37.496094 29.113281 C 37.023438 29.113281 36.628906 28.734375 36.628906 28.25 L 36.628906 22.980469 C 36.628906 22.507812 37.011719 22.117188 37.496094 22.117188 C 37.96875 22.117188 38.359375 22.5 38.359375 22.980469 L 38.359375 28.25 C 38.359375 28.734375 37.96875 29.113281 37.496094 29.113281 Z M 37.496094 29.113281 " fill-opacity="1" fill-rule="nonzero"/><path fill="#fb7439" d="M 52.011719 38.359375 L 46.742188 38.359375 C 46.269531 38.359375 45.875 37.980469 45.875 37.496094 C 45.875 37.023438 46.257812 36.628906 46.742188 36.628906 L 52.011719 36.628906 C 52.480469 36.628906 52.875 37.011719 52.875 37.496094 C 52.875 37.96875 52.480469 38.359375 52.011719 38.359375 Z M 52.011719 38.359375 " fill-opacity="1" fill-rule="nonzero"/><path fill="#fb7439" d="M 37.496094 52.875 C 37.023438 52.875 36.628906 52.492188 36.628906 52.011719 L 36.628906 46.742188 C 36.628906 46.269531 37.011719 45.875 37.496094 45.875 C 37.96875 45.875 38.359375 46.257812 38.359375 46.742188 L 38.359375 52.011719 C 38.359375 52.480469 37.96875 52.875 37.496094 52.875 Z M 37.496094 52.875 " fill-opacity="1" fill-rule="nonzero"/><path fill="#fb7439" d="M 28.25 38.359375 L 22.980469 38.359375 C 22.507812 38.359375 22.117188 37.980469 22.117188 37.496094 C 22.117188 37.023438 22.5 36.628906 22.980469 36.628906 L 28.25 36.628906 C 28.722656 36.628906 29.113281 37.011719 29.113281 37.496094 C 29.113281 37.96875 28.734375 38.359375 28.25 38.359375 Z M 28.25 38.359375 " fill-opacity="1" fill-rule="nonzero"/><path fill="#fb7439" d="M 37.496094 34.304688 C 35.585938 34.304688 34.035156 32.753906 34.035156 30.84375 C 34.035156 28.933594 35.585938 27.386719 37.496094 27.386719 C 39.40625 27.386719 40.957031 28.933594 40.957031 30.84375 C 40.957031 32.753906 39.40625 34.304688 37.496094 34.304688 Z M 37.496094 29.113281 C 36.539062 29.113281 35.765625 29.890625 35.765625 30.84375 C 35.765625 31.800781 36.539062 32.574219 37.496094 32.574219 C 38.449219 32.574219 39.226562 31.800781 39.226562 30.84375 C 39.226562 29.890625 38.449219 29.113281 37.496094 29.113281 Z M 37.496094 29.113281 " fill-opacity="1" fill-rule="nonzero"/><path fill="#fb7439" d="M 30.84375 40.957031 C 28.933594 40.957031 27.386719 39.40625 27.386719 37.496094 C 27.386719 35.585938 28.933594 34.035156 30.84375 34.035156 C 32.753906 34.035156 34.304688 35.585938 34.304688 37.496094 C 34.304688 39.40625 32.753906 40.957031 30.84375 40.957031 Z M 30.84375 35.765625 C 29.890625 35.765625 29.113281 36.539062 29.113281 37.496094 C 29.113281 38.449219 29.890625 39.226562 30.84375 39.226562 C 31.800781 39.226562 32.574219 38.449219 32.574219 37.496094 C 32.574219 36.539062 31.800781 35.765625 30.84375 35.765625 Z M 30.84375 35.765625 " fill-opacity="1" fill-rule="nonzero"/><path fill="#fb7439" d="M 44.144531 40.957031 C 42.238281 40.957031 40.6875 39.40625 40.6875 37.496094 C 40.6875 35.585938 42.238281 34.035156 44.144531 34.035156 C 46.054688 34.035156 47.605469 35.585938 47.605469 37.496094 C 47.605469 39.40625 46.042969 40.957031 44.144531 40.957031 Z M 44.144531 35.765625 C 43.191406 35.765625 42.417969 36.539062 42.417969 37.496094 C 42.417969 38.449219 43.191406 39.226562 44.144531 39.226562 C 45.101562 39.226562 45.875 38.449219 45.875 37.496094 C 45.875 36.539062 45.101562 35.765625 44.144531 35.765625 Z M 44.144531 35.765625 " fill-opacity="1" fill-rule="nonzero"/><path fill="#fb7439" d="M 37.496094 47.605469 C 35.585938 47.605469 34.035156 46.054688 34.035156 44.144531 C 34.035156 42.238281 35.585938 40.6875 37.496094 40.6875 C 39.40625 40.6875 40.957031 42.238281 40.957031 44.144531 C 40.957031 46.054688 39.40625 47.605469 37.496094 47.605469 Z M 37.496094 42.417969 C 36.539062 42.417969 35.765625 43.191406 35.765625 44.144531 C 35.765625 45.101562 36.539062 45.875 37.496094 45.875 C 38.449219 45.875 39.226562 45.101562 39.226562 44.144531 C 39.226562 43.191406 38.449219 42.417969 37.496094 42.417969 Z M 37.496094 42.417969 " fill-opacity="1" fill-rule="nonzero"/></svg>