<svg xmlns="http://www.w3.org/2000/svg" xmlns:xlink="http://www.w3.org/1999/xlink" width="100" zoomAndPan="magnify" viewBox="0 0 75 74.999997" height="100" preserveAspectRatio="xMidYMid meet" version="1.0"><defs><clipPath id="c84c1de4e1"><path d="M 10.5 10.703125 L 64.5 10.703125 L 64.5 63.953125 L 10.5 63.953125 Z M 10.5 10.703125 " clip-rule="nonzero"/></clipPath></defs><g clip-path="url(#c84c1de4e1)"><path fill="#fb7439" d="M 59.863281 33.789062 L 59.863281 32.589844 L 62.367188 32.589844 C 63.535156 32.589844 64.488281 31.636719 64.488281 30.464844 L 64.488281 28.289062 C 64.488281 27.117188 63.535156 26.164062 62.367188 26.164062 L 59.863281 26.164062 L 59.863281 23.753906 C 59.863281 23.476562 59.714844 23.226562 59.476562 23.089844 L 37.867188 10.859375 C 37.636719 10.730469 37.351562 10.730469 37.117188 10.859375 L 15.511719 23.089844 C 15.273438 23.222656 15.125 23.476562 15.125 23.753906 L 15.125 26.164062 L 12.625 26.164062 C 11.453125 26.164062 10.5 27.117188 10.5 28.289062 L 10.5 30.464844 C 10.5 31.636719 11.453125 32.589844 12.625 32.589844 L 15.125 32.589844 L 15.125 33.789062 C 15.125 34.816406 15.695312 35.710938 16.535156 36.171875 L 16.535156 53.828125 L 14.488281 53.828125 C 13.535156 53.828125 12.757812 54.636719 12.757812 55.625 L 12.757812 57.566406 L 12.320312 57.566406 C 11.316406 57.566406 10.5 58.371094 10.5 59.363281 L 10.5 62.058594 C 10.5 62.480469 10.839844 62.820312 11.261719 62.820312 L 29.898438 62.820312 L 29.898438 63.503906 C 29.898438 63.925781 30.238281 64.265625 30.660156 64.265625 L 44.332031 64.265625 C 44.75 64.265625 45.09375 63.925781 45.09375 63.503906 L 45.09375 62.820312 L 63.726562 62.820312 C 64.148438 62.820312 64.488281 62.480469 64.488281 62.058594 L 64.488281 59.363281 C 64.488281 58.371094 63.671875 57.566406 62.667969 57.566406 L 62.230469 57.566406 L 62.230469 55.625 C 62.230469 54.636719 61.453125 53.828125 60.5 53.828125 L 58.453125 53.828125 L 58.453125 36.171875 C 59.292969 35.710938 59.863281 34.816406 59.863281 33.789062 Z M 58.339844 33.789062 C 58.339844 34.449219 57.800781 34.988281 57.140625 34.988281 L 51.867188 34.988281 C 51.203125 34.988281 50.664062 34.449219 50.664062 33.789062 L 50.664062 32.589844 L 58.339844 32.589844 Z M 56.285156 57.191406 L 56.285156 61.296875 L 54.886719 61.296875 L 54.886719 57.796875 C 54.886719 57.375 54.546875 57.035156 54.125 57.035156 C 53.703125 57.035156 53.363281 57.375 53.363281 57.796875 L 53.363281 61.296875 L 48.019531 61.296875 L 48.019531 57.796875 C 48.019531 57.375 47.675781 57.035156 47.253906 57.035156 C 46.835938 57.035156 46.492188 57.375 46.492188 57.796875 L 46.492188 61.296875 L 45.09375 61.296875 L 45.09375 57.191406 C 45.09375 55.722656 46.40625 54.527344 48.019531 54.527344 L 53.359375 54.527344 C 54.972656 54.527344 56.285156 55.722656 56.285156 57.191406 Z M 31 55.421875 C 30.324219 54.0625 28.898438 53.101562 27.230469 53.011719 C 27.972656 52.023438 28.359375 50.6875 28.359375 49.386719 C 28.359375 47.195312 26.609375 45.40625 24.433594 45.332031 L 24.433594 36.175781 C 25.277344 35.710938 25.847656 34.816406 25.847656 33.789062 L 25.847656 32.589844 L 32.132812 32.589844 L 32.132812 33.789062 C 32.132812 34.816406 32.703125 35.707031 33.542969 36.171875 L 33.542969 48.171875 C 33.316406 48.695312 33.1875 49.273438 33.1875 49.882812 C 33.1875 51.304688 33.625 52.773438 34.457031 53.832031 C 33.070312 53.878906 31.835938 54.484375 31 55.421875 Z M 29.898438 61.296875 L 28.496094 61.296875 L 28.496094 57.796875 C 28.496094 57.375 28.152344 57.035156 27.734375 57.035156 C 27.3125 57.035156 26.972656 57.375 26.972656 57.796875 L 26.972656 61.296875 L 21.625 61.296875 L 21.625 57.796875 C 21.625 57.375 21.285156 57.035156 20.863281 57.035156 C 20.445312 57.035156 20.101562 57.375 20.101562 57.796875 L 20.101562 61.296875 L 18.703125 61.296875 L 18.703125 57.191406 C 18.703125 55.722656 20.015625 54.527344 21.628906 54.527344 L 26.972656 54.527344 C 28.585938 54.527344 29.894531 55.722656 29.894531 57.191406 L 29.894531 61.296875 Z M 21.765625 49.386719 C 21.765625 47.992188 22.902344 46.855469 24.300781 46.855469 C 25.695312 46.855469 26.835938 47.992188 26.835938 49.386719 C 26.835938 50.890625 26.046875 53.003906 24.300781 53.003906 C 22.550781 53.003906 21.765625 50.890625 21.765625 49.386719 Z M 35.066406 36.511719 L 39.921875 36.511719 L 39.921875 46.328125 C 39.230469 45.855469 38.394531 45.578125 37.492188 45.578125 C 36.59375 45.578125 35.757812 45.855469 35.066406 46.328125 Z M 41.332031 33.789062 C 41.332031 34.449219 40.792969 34.988281 40.132812 34.988281 L 34.859375 34.988281 C 34.195312 34.988281 33.65625 34.449219 33.65625 33.789062 L 33.65625 32.589844 L 41.332031 32.589844 Z M 34.710938 49.882812 C 34.710938 48.347656 35.960938 47.101562 37.492188 47.101562 C 39.027344 47.101562 40.277344 48.347656 40.277344 49.882812 C 40.277344 51.519531 39.414062 53.828125 37.492188 53.828125 C 35.574219 53.828125 34.710938 51.519531 34.710938 49.882812 Z M 41.800781 49.882812 C 41.800781 49.273438 41.671875 48.695312 41.445312 48.171875 L 41.445312 36.171875 C 42.285156 35.707031 42.855469 34.816406 42.855469 33.789062 L 42.855469 32.589844 L 49.140625 32.589844 L 49.140625 33.789062 C 49.140625 34.816406 49.714844 35.710938 50.554688 36.175781 L 50.554688 45.332031 C 48.378906 45.40625 46.628906 47.195312 46.628906 49.386719 C 46.628906 50.6875 47.015625 52.023438 47.757812 53.011719 C 46.089844 53.101562 44.664062 54.0625 43.988281 55.421875 C 43.152344 54.484375 41.917969 53.875 40.53125 53.832031 C 41.363281 52.773438 41.800781 51.304688 41.800781 49.882812 Z M 50.691406 53.003906 C 48.941406 53.003906 48.152344 50.890625 48.152344 49.386719 C 48.152344 47.992188 49.292969 46.855469 50.691406 46.855469 C 52.089844 46.855469 53.222656 47.992188 53.222656 49.386719 C 53.222656 50.890625 52.4375 53.003906 50.691406 53.003906 Z M 16.648438 24.195312 L 37.492188 12.398438 L 58.339844 24.195312 L 58.339844 26.164062 L 16.648438 26.164062 Z M 12.625 31.066406 C 12.292969 31.066406 12.023438 30.796875 12.023438 30.464844 L 12.023438 28.289062 C 12.023438 27.957031 12.292969 27.6875 12.625 27.6875 L 62.367188 27.6875 C 62.695312 27.6875 62.964844 27.957031 62.964844 28.289062 L 62.964844 30.464844 C 62.964844 30.796875 62.695312 31.066406 62.367188 31.066406 Z M 24.324219 32.589844 L 24.324219 33.789062 C 24.324219 34.449219 23.785156 34.988281 23.125 34.988281 L 17.847656 34.988281 C 17.1875 34.988281 16.648438 34.449219 16.648438 33.789062 L 16.648438 32.589844 Z M 18.058594 36.511719 L 22.910156 36.511719 L 22.910156 45.574219 C 21.355469 46.144531 20.242188 47.636719 20.242188 49.386719 C 20.242188 50.6875 20.628906 52.023438 21.371094 53.011719 C 20.480469 53.058594 19.65625 53.355469 18.984375 53.828125 L 18.058594 53.828125 Z M 14.28125 55.625 C 14.28125 55.464844 14.390625 55.351562 14.488281 55.351562 L 17.632812 55.351562 C 17.34375 55.90625 17.179688 56.53125 17.179688 57.191406 L 17.179688 57.566406 L 14.28125 57.566406 Z M 12.023438 59.363281 C 12.023438 59.214844 12.160156 59.089844 12.320312 59.089844 L 17.179688 59.089844 L 17.179688 61.296875 L 12.023438 61.296875 Z M 43.570312 62.742188 L 41.949219 62.742188 L 41.949219 58.921875 C 41.949219 58.5 41.605469 58.160156 41.1875 58.160156 C 40.765625 58.160156 40.425781 58.5 40.425781 58.921875 L 40.425781 62.742188 L 34.566406 62.742188 L 34.566406 58.921875 C 34.566406 58.5 34.222656 58.160156 33.800781 58.160156 C 33.382812 58.160156 33.039062 58.5 33.039062 58.921875 L 33.039062 62.742188 L 31.421875 62.742188 L 31.421875 58.269531 C 31.421875 56.660156 32.855469 55.351562 34.625 55.351562 L 40.367188 55.351562 C 42.132812 55.351562 43.570312 56.660156 43.570312 58.269531 Z M 62.964844 59.363281 L 62.964844 61.296875 L 57.808594 61.296875 L 57.808594 59.089844 L 62.667969 59.089844 C 62.828125 59.089844 62.964844 59.214844 62.964844 59.363281 Z M 60.707031 55.625 L 60.707031 57.566406 L 57.808594 57.566406 L 57.808594 57.191406 C 57.808594 56.53125 57.644531 55.90625 57.355469 55.351562 L 60.5 55.351562 C 60.597656 55.351562 60.707031 55.464844 60.707031 55.625 Z M 56.007812 53.828125 C 55.332031 53.355469 54.507812 53.058594 53.617188 53.011719 C 54.359375 52.023438 54.746094 50.6875 54.746094 49.386719 C 54.746094 47.636719 53.632812 46.144531 52.078125 45.574219 L 52.078125 36.511719 L 56.929688 36.511719 L 56.929688 53.828125 Z M 37.492188 16.855469 C 36.082031 16.855469 34.933594 18.003906 34.933594 19.417969 C 34.933594 20.828125 36.082031 21.976562 37.492188 21.976562 C 38.90625 21.976562 40.058594 20.828125 40.058594 19.417969 C 40.058594 18.003906 38.90625 16.855469 37.492188 16.855469 Z M 37.492188 20.453125 C 36.921875 20.453125 36.457031 19.988281 36.457031 19.417969 C 36.457031 18.84375 36.921875 18.378906 37.492188 18.378906 C 38.066406 18.378906 38.53125 18.84375 38.53125 19.417969 C 38.53125 19.988281 38.066406 20.453125 37.492188 20.453125 Z M 37.492188 20.453125 " fill-opacity="1" fill-rule="nonzero"/></g></svg>