<svg xmlns="http://www.w3.org/2000/svg" xmlns:xlink="http://www.w3.org/1999/xlink" width="100" zoomAndPan="magnify" viewBox="0 0 75 74.999997" height="100" preserveAspectRatio="xMidYMid meet" version="1.0"><defs><clipPath id="d9061e13b1"><path d="M 19 11.015625 L 64 11.015625 L 64 55 L 19 55 Z M 19 11.015625 " clip-rule="nonzero"/></clipPath><clipPath id="427d1a5f90"><path d="M 11.015625 19 L 57 19 L 57 64 L 11.015625 64 Z M 11.015625 19 " clip-rule="nonzero"/></clipPath></defs><path fill="#fb7439" d="M 30.972656 36.472656 L 29.027344 35.226562 C 28.773438 35.0625 28.445312 35.078125 28.207031 35.265625 L 27.058594 36.15625 L 25.890625 35.949219 L 25.117188 34.710938 C 24.960938 34.457031 24.65625 34.328125 24.363281 34.394531 L 22.109375 34.886719 C 21.8125 34.953125 21.59375 35.195312 21.554688 35.496094 L 21.371094 36.941406 L 20.398438 37.617188 L 18.980469 37.289062 C 18.6875 37.222656 18.382812 37.34375 18.21875 37.597656 L 16.976562 39.542969 C 16.8125 39.796875 16.828125 40.125 17.011719 40.363281 L 17.90625 41.515625 L 17.699219 42.679688 L 16.460938 43.453125 C 16.207031 43.613281 16.078125 43.914062 16.140625 44.207031 L 16.636719 46.460938 C 16.703125 46.757812 16.945312 46.980469 17.242188 47.015625 L 18.6875 47.199219 L 19.367188 48.171875 L 19.039062 49.589844 C 18.96875 49.882812 19.09375 50.1875 19.347656 50.351562 L 21.289062 51.59375 C 21.542969 51.757812 21.871094 51.742188 22.109375 51.558594 L 23.261719 50.664062 L 24.429688 50.875 L 25.199219 52.109375 C 25.332031 52.320312 25.5625 52.445312 25.804688 52.445312 C 25.855469 52.445312 25.90625 52.441406 25.957031 52.429688 L 28.210938 51.933594 C 28.503906 51.871094 28.726562 51.625 28.765625 51.328125 L 28.949219 49.882812 L 29.917969 49.203125 L 31.339844 49.535156 C 31.632812 49.601562 31.9375 49.476562 32.101562 49.222656 L 33.34375 47.28125 C 33.507812 47.027344 33.492188 46.699219 33.308594 46.460938 L 32.414062 45.308594 L 32.621094 44.140625 L 33.859375 43.371094 C 34.113281 43.210938 34.242188 42.90625 34.175781 42.613281 L 33.683594 40.359375 C 33.617188 40.066406 33.375 39.84375 33.078125 39.804688 L 31.628906 39.625 L 30.953125 38.652344 L 31.28125 37.230469 C 31.351562 36.9375 31.226562 36.632812 30.972656 36.472656 Z M 31.136719 40.996094 L 32.398438 41.15625 L 32.679688 42.429688 L 31.601562 43.101562 C 31.429688 43.207031 31.3125 43.382812 31.277344 43.578125 L 30.957031 45.371094 C 30.921875 45.566406 30.972656 45.773438 31.09375 45.929688 L 31.875 46.9375 L 31.171875 48.03125 L 29.933594 47.746094 C 29.738281 47.699219 29.53125 47.738281 29.363281 47.855469 L 27.875 48.894531 C 27.707031 49.007812 27.601562 49.191406 27.574219 49.390625 L 27.414062 50.652344 L 26.144531 50.929688 L 25.46875 49.851562 C 25.363281 49.679688 25.191406 49.5625 24.992188 49.527344 L 23.203125 49.207031 C 23.160156 49.199219 23.117188 49.195312 23.078125 49.195312 C 22.917969 49.195312 22.765625 49.25 22.640625 49.347656 L 21.636719 50.125 L 20.539062 49.421875 L 20.824219 48.183594 C 20.871094 47.988281 20.832031 47.78125 20.714844 47.617188 L 19.675781 46.125 C 19.5625 45.960938 19.382812 45.851562 19.183594 45.824219 L 17.921875 45.667969 L 17.640625 44.394531 L 18.71875 43.722656 C 18.890625 43.613281 19.007812 43.441406 19.042969 43.242188 L 19.363281 41.453125 C 19.398438 41.253906 19.347656 41.050781 19.226562 40.890625 L 18.445312 39.886719 L 19.148438 38.789062 L 20.386719 39.078125 C 20.582031 39.121094 20.789062 39.082031 20.957031 38.96875 L 22.445312 37.929688 C 22.613281 37.8125 22.71875 37.632812 22.746094 37.433594 L 22.90625 36.171875 L 24.175781 35.890625 L 24.851562 36.972656 C 24.957031 37.140625 25.128906 37.261719 25.328125 37.296875 L 27.117188 37.613281 C 27.316406 37.652344 27.519531 37.601562 27.679688 37.476562 L 28.683594 36.695312 L 29.78125 37.398438 L 29.496094 38.636719 C 29.449219 38.835938 29.488281 39.039062 29.605469 39.207031 L 30.644531 40.699219 C 30.757812 40.863281 30.9375 40.972656 31.136719 40.996094 Z M 31.136719 40.996094 " fill-opacity="1" fill-rule="nonzero"/><path fill="#fb7439" d="M 25.9375 39.046875 C 24.773438 38.835938 23.597656 39.097656 22.625 39.773438 C 21.652344 40.449219 21.003906 41.464844 20.796875 42.632812 C 20.585938 43.796875 20.84375 44.976562 21.523438 45.945312 C 22.199219 46.917969 23.214844 47.566406 24.378906 47.777344 C 24.644531 47.824219 24.90625 47.847656 25.167969 47.847656 C 26.066406 47.847656 26.941406 47.574219 27.695312 47.046875 C 28.667969 46.371094 29.316406 45.355469 29.523438 44.191406 C 29.734375 43.023438 29.476562 41.847656 28.796875 40.875 C 28.121094 39.902344 27.105469 39.253906 25.9375 39.046875 Z M 28.125 43.941406 C 27.980469 44.730469 27.539062 45.421875 26.882812 45.878906 C 26.222656 46.339844 25.421875 46.515625 24.628906 46.375 C 23.839844 46.234375 23.148438 45.792969 22.691406 45.132812 C 22.230469 44.472656 22.054688 43.671875 22.195312 42.882812 C 22.457031 41.425781 23.726562 40.402344 25.160156 40.402344 C 25.332031 40.402344 25.511719 40.417969 25.6875 40.449219 C 26.480469 40.589844 27.167969 41.03125 27.628906 41.691406 C 28.089844 42.347656 28.265625 43.148438 28.125 43.941406 Z M 28.125 43.941406 " fill-opacity="1" fill-rule="nonzero"/><path fill="#fb7439" d="M 43.828125 51.664062 C 44.085938 51.503906 44.210938 51.203125 44.148438 50.90625 L 43.835938 49.488281 C 43.773438 49.195312 43.527344 48.972656 43.230469 48.933594 L 42.433594 48.832031 L 42.140625 48.414062 L 42.324219 47.632812 C 42.390625 47.339844 42.265625 47.035156 42.011719 46.871094 L 40.789062 46.089844 C 40.535156 45.925781 40.207031 45.941406 39.96875 46.125 L 39.335938 46.617188 L 38.832031 46.527344 L 38.40625 45.847656 C 38.25 45.589844 37.945312 45.464844 37.652344 45.527344 L 36.230469 45.839844 C 35.9375 45.90625 35.714844 46.148438 35.675781 46.445312 L 35.578125 47.242188 L 35.15625 47.535156 L 34.375 47.351562 C 34.082031 47.285156 33.777344 47.410156 33.617188 47.664062 L 32.832031 48.886719 C 32.667969 49.140625 32.683594 49.46875 32.867188 49.707031 L 33.359375 50.339844 L 33.269531 50.84375 L 32.589844 51.269531 C 32.335938 51.429688 32.207031 51.730469 32.273438 52.027344 L 32.582031 53.445312 C 32.648438 53.738281 32.890625 53.960938 33.1875 54 L 33.984375 54.097656 L 34.277344 54.519531 L 34.097656 55.300781 C 34.027344 55.59375 34.152344 55.898438 34.40625 56.0625 L 35.628906 56.84375 C 35.882812 57.007812 36.210938 56.992188 36.449219 56.808594 L 37.082031 56.316406 L 37.585938 56.40625 L 38.011719 57.085938 C 38.144531 57.296875 38.375 57.421875 38.617188 57.421875 C 38.667969 57.421875 38.71875 57.414062 38.769531 57.40625 L 40.1875 57.09375 C 40.484375 57.027344 40.703125 56.785156 40.742188 56.488281 L 40.84375 55.691406 L 41.261719 55.398438 L 42.042969 55.582031 C 42.335938 55.648438 42.640625 55.523438 42.804688 55.269531 L 43.585938 54.046875 C 43.75 53.792969 43.734375 53.464844 43.550781 53.226562 L 43.058594 52.59375 L 43.148438 52.089844 Z M 42.128906 51.046875 C 41.957031 51.15625 41.839844 51.328125 41.804688 51.527344 L 41.601562 52.652344 C 41.566406 52.851562 41.617188 53.054688 41.742188 53.214844 L 42.117188 53.703125 L 41.875 54.078125 L 41.277344 53.941406 C 41.078125 53.894531 40.875 53.933594 40.707031 54.050781 L 39.769531 54.703125 C 39.605469 54.820312 39.496094 55 39.46875 55.199219 L 39.394531 55.808594 L 38.953125 55.90625 L 38.628906 55.382812 C 38.523438 55.214844 38.347656 55.09375 38.148438 55.058594 L 37.023438 54.859375 C 36.980469 54.851562 36.9375 54.847656 36.898438 54.847656 C 36.742188 54.847656 36.585938 54.898438 36.460938 54.996094 L 35.976562 55.375 L 35.597656 55.132812 L 35.734375 54.535156 C 35.78125 54.335938 35.742188 54.128906 35.625 53.964844 L 34.972656 53.027344 C 34.855469 52.859375 34.675781 52.75 34.476562 52.726562 L 33.867188 52.648438 L 33.769531 52.210938 L 34.292969 51.886719 C 34.464844 51.777344 34.582031 51.605469 34.617188 51.40625 L 34.816406 50.28125 C 34.851562 50.082031 34.804688 49.878906 34.679688 49.71875 L 34.300781 49.230469 L 34.542969 48.855469 L 35.144531 48.992188 C 35.339844 49.039062 35.546875 49 35.710938 48.882812 L 36.652344 48.230469 C 36.816406 48.113281 36.925781 47.933594 36.949219 47.734375 L 37.027344 47.125 L 37.464844 47.027344 L 37.789062 47.550781 C 37.898438 47.71875 38.070312 47.839844 38.269531 47.875 L 39.398438 48.074219 C 39.59375 48.109375 39.800781 48.058594 39.957031 47.9375 L 40.445312 47.558594 L 40.824219 47.800781 L 40.683594 48.402344 C 40.636719 48.597656 40.679688 48.804688 40.792969 48.96875 L 41.449219 49.90625 C 41.5625 50.074219 41.742188 50.183594 41.941406 50.207031 L 42.554688 50.285156 L 42.648438 50.722656 Z M 42.128906 51.046875 " fill-opacity="1" fill-rule="nonzero"/><path fill="#fb7439" d="M 38.699219 48.726562 C 37.96875 48.597656 37.230469 48.761719 36.621094 49.183594 C 36.011719 49.609375 35.601562 50.246094 35.472656 50.976562 C 35.203125 52.488281 36.210938 53.933594 37.722656 54.203125 C 37.886719 54.234375 38.050781 54.25 38.210938 54.25 C 39.53125 54.25 40.707031 53.300781 40.949219 51.957031 C 41.078125 51.222656 40.917969 50.484375 40.492188 49.875 C 40.066406 49.265625 39.429688 48.859375 38.699219 48.726562 Z M 39.546875 51.707031 C 39.414062 52.441406 38.707031 52.933594 37.972656 52.804688 C 37.234375 52.671875 36.742188 51.964844 36.875 51.226562 C 36.9375 50.871094 37.136719 50.558594 37.433594 50.351562 C 37.664062 50.191406 37.933594 50.109375 38.207031 50.109375 C 38.285156 50.109375 38.367188 50.117188 38.449219 50.128906 C 38.804688 50.195312 39.117188 50.394531 39.324219 50.691406 C 39.53125 50.988281 39.609375 51.347656 39.546875 51.707031 Z M 39.546875 51.707031 " fill-opacity="1" fill-rule="nonzero"/><path fill="#fb7439" d="M 39.265625 37.1875 C 39.78125 37.925781 40.421875 38.546875 41.171875 39.035156 C 41.949219 39.542969 42.8125 39.882812 43.730469 40.046875 C 44.140625 40.121094 44.550781 40.15625 44.957031 40.15625 C 45.46875 40.15625 45.976562 40.097656 46.480469 39.984375 C 47.355469 39.785156 48.171875 39.425781 48.910156 38.910156 C 49.648438 38.394531 50.269531 37.753906 50.757812 37.003906 C 51.261719 36.226562 51.601562 35.367188 51.765625 34.445312 C 51.933594 33.523438 51.910156 32.601562 51.707031 31.695312 C 51.507812 30.820312 51.144531 30.003906 50.632812 29.265625 C 50.117188 28.53125 49.476562 27.90625 48.726562 27.417969 C 47.949219 26.914062 47.085938 26.574219 46.167969 26.410156 C 45.246094 26.246094 44.320312 26.265625 43.417969 26.472656 C 42.542969 26.667969 41.726562 27.03125 40.988281 27.546875 C 40.25 28.058594 39.628906 28.699219 39.140625 29.453125 C 38.632812 30.230469 38.292969 31.089844 38.128906 32.011719 C 37.964844 32.929688 37.988281 33.855469 38.191406 34.761719 C 38.390625 35.632812 38.753906 36.449219 39.265625 37.1875 Z M 39.53125 32.261719 C 39.789062 30.8125 40.597656 29.554688 41.800781 28.714844 C 42.734375 28.0625 43.824219 27.722656 44.9375 27.722656 C 45.261719 27.722656 45.589844 27.753906 45.914062 27.8125 C 47.363281 28.070312 48.621094 28.875 49.460938 30.082031 C 50.304688 31.289062 50.625 32.75 50.367188 34.195312 C 50.105469 35.640625 49.300781 36.902344 48.09375 37.742188 C 46.890625 38.582031 45.429688 38.902344 43.980469 38.644531 C 42.535156 38.386719 41.273438 37.578125 40.433594 36.375 C 39.59375 35.167969 39.273438 33.707031 39.53125 32.261719 Z M 39.53125 32.261719 " fill-opacity="1" fill-rule="nonzero"/><path fill="#fb7439" d="M 32.175781 34.441406 C 31.894531 34.601562 31.757812 34.925781 31.835938 35.238281 L 32.457031 37.65625 C 32.539062 37.96875 32.816406 38.1875 33.136719 38.191406 L 35.089844 38.214844 L 35.808594 39.421875 L 34.902344 41.152344 C 34.753906 41.4375 34.8125 41.785156 35.046875 42.003906 L 36.878906 43.699219 C 37.113281 43.917969 37.46875 43.953125 37.738281 43.78125 L 39.394531 42.75 L 40.652344 43.375 L 40.824219 45.320312 C 40.851562 45.640625 41.09375 45.902344 41.410156 45.957031 L 43.867188 46.398438 C 43.90625 46.40625 43.949219 46.410156 43.992188 46.410156 C 44.261719 46.410156 44.515625 46.253906 44.632812 46 L 45.46875 44.234375 L 46.867188 44.082031 L 48.058594 45.625 C 48.257812 45.878906 48.601562 45.96875 48.898438 45.847656 L 51.191406 44.890625 L 51.199219 44.886719 C 51.496094 44.765625 51.675781 44.457031 51.632812 44.136719 L 51.378906 42.203125 L 52.472656 41.320312 L 54.3125 41.972656 C 54.617188 42.078125 54.953125 41.96875 55.136719 41.703125 L 56.554688 39.652344 C 56.738281 39.386719 56.722656 39.035156 56.515625 38.789062 L 55.253906 37.296875 L 55.699219 35.960938 L 57.597656 35.515625 C 57.910156 35.441406 58.132812 35.167969 58.144531 34.847656 L 58.230469 32.351562 C 58.242188 32.03125 58.035156 31.742188 57.726562 31.648438 L 55.863281 31.074219 L 55.511719 29.710938 L 56.871094 28.308594 C 57.09375 28.078125 57.132812 27.726562 56.96875 27.449219 L 55.691406 25.304688 C 55.527344 25.03125 55.199219 24.898438 54.886719 24.984375 L 53.011719 25.511719 L 51.976562 24.554688 L 52.363281 22.640625 C 52.425781 22.328125 52.269531 22.007812 51.980469 21.863281 L 49.746094 20.75 C 49.460938 20.609375 49.113281 20.675781 48.898438 20.914062 L 47.601562 22.375 L 46.21875 22.125 L 45.503906 20.308594 C 45.386719 20.011719 45.085938 19.828125 44.765625 19.863281 L 42.285156 20.132812 C 41.964844 20.167969 41.707031 20.414062 41.65625 20.730469 L 41.355469 22.65625 L 40.058594 23.199219 L 38.476562 22.054688 C 38.214844 21.867188 37.863281 21.875 37.613281 22.078125 L 35.671875 23.648438 C 35.421875 23.851562 35.335938 24.195312 35.46875 24.488281 L 36.253906 26.273438 L 35.453125 27.429688 L 33.507812 27.324219 C 33.1875 27.304688 32.894531 27.503906 32.792969 27.8125 L 32.007812 30.179688 C 31.90625 30.484375 32.023438 30.820312 32.292969 30.996094 L 33.917969 32.074219 L 33.871094 33.480469 Z M 35.035156 31.105469 L 33.53125 30.109375 L 33.972656 28.773438 L 35.773438 28.875 C 36.023438 28.886719 36.257812 28.773438 36.398438 28.570312 L 37.652344 26.753906 C 37.792969 26.550781 37.820312 26.289062 37.71875 26.0625 L 36.988281 24.414062 L 38.082031 23.527344 L 39.546875 24.585938 C 39.746094 24.730469 40.007812 24.761719 40.234375 24.667969 L 42.269531 23.820312 C 42.5 23.722656 42.664062 23.515625 42.699219 23.273438 L 42.980469 21.488281 L 44.378906 21.335938 L 45.035156 23.015625 C 45.125 23.246094 45.332031 23.414062 45.574219 23.457031 L 47.742188 23.84375 C 47.988281 23.890625 48.238281 23.804688 48.402344 23.617188 L 49.601562 22.269531 L 50.859375 22.894531 L 50.503906 24.664062 C 50.457031 24.910156 50.535156 25.160156 50.71875 25.328125 L 52.332031 26.828125 C 52.515625 26.996094 52.769531 27.058594 53.007812 26.992188 L 54.746094 26.503906 L 55.46875 27.710938 L 54.210938 29.007812 C 54.039062 29.1875 53.972656 29.441406 54.035156 29.679688 L 54.582031 31.816406 C 54.644531 32.054688 54.828125 32.246094 55.0625 32.320312 L 56.789062 32.847656 L 56.742188 34.253906 L 54.984375 34.667969 C 54.742188 34.722656 54.546875 34.902344 54.46875 35.136719 L 53.777344 37.230469 C 53.699219 37.464844 53.75 37.722656 53.910156 37.910156 L 55.074219 39.289062 L 54.273438 40.445312 L 52.574219 39.84375 C 52.339844 39.761719 52.082031 39.804688 51.886719 39.960938 L 50.175781 41.347656 C 49.980469 41.503906 49.882812 41.75 49.914062 41.992188 L 50.148438 43.78125 L 48.851562 44.324219 L 47.746094 42.898438 C 47.59375 42.699219 47.351562 42.597656 47.105469 42.625 L 44.914062 42.863281 C 44.667969 42.890625 44.453125 43.042969 44.347656 43.269531 L 43.578125 44.898438 L 42.195312 44.652344 L 42.035156 42.855469 C 42.015625 42.609375 41.867188 42.390625 41.644531 42.28125 L 39.671875 41.296875 C 39.449219 41.1875 39.1875 41.199219 38.976562 41.332031 L 37.445312 42.285156 L 36.417969 41.332031 L 37.253906 39.734375 C 37.371094 39.515625 37.363281 39.25 37.238281 39.039062 L 36.109375 37.144531 C 35.980469 36.929688 35.753906 36.800781 35.503906 36.796875 L 33.703125 36.773438 L 33.351562 35.410156 L 34.921875 34.519531 C 35.136719 34.398438 35.273438 34.171875 35.28125 33.925781 L 35.355469 31.722656 C 35.363281 31.476562 35.242188 31.242188 35.035156 31.105469 Z M 35.035156 31.105469 " fill-opacity="1" fill-rule="nonzero"/><g clip-path="url(#d9061e13b1)"><path fill="#fb7439" d="M 63.972656 37.496094 C 63.972656 33.921875 63.273438 30.453125 61.894531 27.1875 C 61.230469 25.621094 60.40625 24.105469 59.453125 22.691406 C 58.503906 21.289062 57.417969 19.96875 56.21875 18.773438 C 55.019531 17.574219 53.703125 16.488281 52.300781 15.539062 C 50.886719 14.582031 49.371094 13.761719 47.800781 13.097656 C 44.539062 11.71875 41.070312 11.015625 37.496094 11.015625 C 34.210938 11.015625 31.003906 11.613281 27.964844 12.785156 C 25.03125 13.917969 22.339844 15.550781 19.972656 17.644531 C 19.675781 17.90625 19.648438 18.355469 19.910156 18.648438 C 20.171875 18.945312 20.621094 18.972656 20.914062 18.710938 C 23.15625 16.730469 25.699219 15.183594 28.476562 14.113281 C 31.351562 13.003906 34.386719 12.441406 37.496094 12.441406 C 40.878906 12.441406 44.160156 13.101562 47.246094 14.410156 C 48.730469 15.039062 50.164062 15.8125 51.503906 16.71875 C 52.828125 17.617188 54.078125 18.644531 55.210938 19.777344 C 56.347656 20.914062 57.375 22.160156 58.273438 23.488281 C 59.175781 24.828125 59.953125 26.257812 60.582031 27.742188 C 61.886719 30.832031 62.550781 34.113281 62.550781 37.496094 C 62.550781 40.3125 62.085938 43.082031 61.171875 45.71875 C 60.433594 47.832031 59.421875 49.832031 58.152344 51.675781 L 57.917969 50.246094 C 57.855469 49.855469 57.488281 49.59375 57.101562 49.65625 C 56.714844 49.722656 56.449219 50.085938 56.515625 50.476562 L 57.003906 53.46875 C 57.058594 53.816406 57.363281 54.066406 57.703125 54.066406 C 57.742188 54.066406 57.78125 54.0625 57.820312 54.054688 L 60.8125 53.566406 C 61.203125 53.503906 61.464844 53.136719 61.402344 52.75 C 61.339844 52.359375 60.972656 52.097656 60.582031 52.160156 L 59.417969 52.351562 C 60.714844 50.4375 61.757812 48.371094 62.515625 46.183594 C 63.484375 43.398438 63.972656 40.472656 63.972656 37.496094 Z M 63.972656 37.496094 " fill-opacity="1" fill-rule="nonzero"/></g><g clip-path="url(#427d1a5f90)"><path fill="#fb7439" d="M 55.503906 54.917969 C 54.363281 56.09375 53.105469 57.164062 51.761719 58.097656 C 50.40625 59.035156 48.949219 59.84375 47.441406 60.5 C 45.902344 61.164062 44.292969 61.675781 42.652344 62.019531 C 40.964844 62.371094 39.230469 62.550781 37.496094 62.550781 C 34.113281 62.550781 30.832031 61.886719 27.742188 60.582031 C 26.257812 59.953125 24.828125 59.175781 23.488281 58.273438 C 22.160156 57.375 20.914062 56.347656 19.777344 55.210938 C 18.644531 54.078125 17.617188 52.832031 16.71875 51.503906 C 15.816406 50.164062 15.039062 48.734375 14.410156 47.246094 C 13.101562 44.160156 12.441406 40.878906 12.441406 37.496094 C 12.441406 34.394531 13 31.363281 14.105469 28.496094 C 14.976562 26.234375 16.164062 24.125 17.640625 22.210938 L 17.640625 23.320312 C 17.640625 23.714844 17.960938 24.03125 18.355469 24.03125 C 18.746094 24.03125 19.066406 23.714844 19.066406 23.320312 L 19.066406 20.289062 C 19.066406 19.894531 18.746094 19.574219 18.355469 19.574219 L 15.320312 19.574219 C 14.929688 19.574219 14.609375 19.894531 14.609375 20.289062 C 14.609375 20.679688 14.929688 21 15.320312 21 L 16.78125 21 C 15.09375 23.113281 13.75 25.457031 12.777344 27.984375 C 11.609375 31.015625 11.015625 34.21875 11.015625 37.496094 C 11.015625 41.070312 11.71875 44.539062 13.097656 47.800781 C 13.761719 49.371094 14.582031 50.886719 15.539062 52.300781 C 16.488281 53.703125 17.574219 55.019531 18.773438 56.21875 C 19.96875 57.417969 21.289062 58.503906 22.691406 59.453125 C 24.105469 60.40625 25.621094 61.230469 27.1875 61.894531 C 30.453125 63.273438 33.921875 63.972656 37.496094 63.972656 C 39.328125 63.972656 41.164062 63.785156 42.941406 63.414062 C 44.675781 63.050781 46.378906 62.511719 48.007812 61.804688 C 49.601562 61.113281 51.140625 60.261719 52.570312 59.265625 C 53.992188 58.28125 55.324219 57.152344 56.527344 55.90625 C 56.800781 55.625 56.792969 55.171875 56.507812 54.898438 C 56.226562 54.625 55.777344 54.632812 55.503906 54.917969 Z M 55.503906 54.917969 " fill-opacity="1" fill-rule="nonzero"/></g><path fill="#fb7439" d="M 43.167969 36.363281 C 43.308594 36.5 43.492188 36.570312 43.671875 36.570312 C 43.855469 36.570312 44.039062 36.5 44.175781 36.363281 L 48.363281 32.175781 C 48.640625 31.898438 48.640625 31.449219 48.363281 31.167969 C 48.082031 30.890625 47.632812 30.890625 47.355469 31.167969 L 43.671875 34.851562 L 42.0625 33.242188 C 41.785156 32.960938 41.332031 32.960938 41.054688 33.242188 C 40.777344 33.519531 40.777344 33.96875 41.054688 34.246094 Z M 43.167969 36.363281 " fill-opacity="1" fill-rule="nonzero"/></svg>