<svg xmlns="http://www.w3.org/2000/svg" xmlns:xlink="http://www.w3.org/1999/xlink" width="100" zoomAndPan="magnify" viewBox="0 0 75 74.999997" height="100" preserveAspectRatio="xMidYMid meet" version="1.0"><defs><clipPath id="f898e69ee5"><path d="M 12.21875 8.976562 L 67.71875 8.976562 L 67.71875 65.976562 L 12.21875 65.976562 Z M 12.21875 8.976562 " clip-rule="nonzero"/></clipPath></defs><path fill="#fb7439" d="M 21.804688 31.359375 L 21.804688 24.519531 C 21.804688 24.269531 21.601562 24.066406 21.351562 24.066406 L 16.160156 24.066406 C 15.910156 24.066406 15.707031 24.269531 15.707031 24.519531 L 15.707031 31.359375 C 15.707031 31.605469 15.910156 31.808594 16.160156 31.808594 L 21.351562 31.808594 C 21.601562 31.808594 21.804688 31.605469 21.804688 31.359375 Z M 21.804688 31.359375 " fill-opacity="1" fill-rule="nonzero"/><path fill="#fb7439" d="M 40.398438 21.785156 C 34.101562 21.785156 28.980469 26.847656 28.980469 33.070312 C 28.980469 39.289062 34.101562 44.351562 40.398438 44.351562 C 46.691406 44.351562 51.8125 39.289062 51.8125 33.070312 C 51.8125 26.847656 46.691406 21.785156 40.398438 21.785156 Z M 40.398438 43.449219 C 34.601562 43.449219 29.886719 38.792969 29.886719 33.070312 C 29.886719 27.34375 34.601562 22.6875 40.398438 22.6875 C 46.191406 22.6875 50.90625 27.34375 50.90625 33.070312 C 50.90625 38.792969 46.191406 43.449219 40.398438 43.449219 Z M 40.398438 43.449219 " fill-opacity="1" fill-rule="nonzero"/><g clip-path="url(#f898e69ee5)"><path fill="#fb7439" d="M 67.015625 8.976562 L 59.902344 8.976562 C 59.78125 8.976562 59.667969 9.023438 59.582031 9.109375 L 51.949219 16.65625 L 17.890625 16.65625 C 17.640625 16.65625 17.4375 16.859375 17.4375 17.109375 L 17.4375 20.644531 L 12.699219 20.644531 C 12.449219 20.644531 12.246094 20.847656 12.246094 21.097656 L 12.246094 65.558594 C 12.246094 65.808594 12.449219 66.011719 12.699219 66.011719 L 47.316406 66.011719 C 47.566406 66.011719 47.769531 65.808594 47.769531 65.558594 L 47.769531 62.019531 L 52.515625 62.019531 C 52.765625 62.019531 52.96875 61.816406 52.96875 61.566406 L 52.96875 39.804688 C 54.097656 37.742188 54.695312 35.417969 54.695312 33.070312 C 54.695312 30.566406 54.023438 28.128906 52.765625 25.984375 L 54.191406 24.578125 L 54.691406 25.070312 C 54.777344 25.15625 54.894531 25.203125 55.007812 25.203125 C 55.121094 25.203125 55.238281 25.15625 55.328125 25.070312 L 56.941406 23.472656 L 67.304688 15.023438 C 67.410156 14.9375 67.46875 14.808594 67.46875 14.671875 L 67.46875 9.429688 C 67.46875 9.179688 67.269531 8.976562 67.015625 8.976562 Z M 48.917969 21.722656 L 50.109375 20.546875 L 53.546875 23.941406 L 52.273438 25.199219 C 51.367188 23.867188 50.222656 22.679688 48.917969 21.722656 Z M 18.34375 17.558594 L 50.214844 17.558594 L 48.976562 18.78125 C 48.890625 18.867188 48.84375 18.984375 48.84375 19.105469 C 48.84375 19.226562 48.890625 19.339844 48.976562 19.425781 L 49.464844 19.910156 L 48.15625 21.207031 C 45.847656 19.722656 43.175781 18.933594 40.398438 18.933594 C 38.007812 18.933594 35.65625 19.523438 33.574219 20.644531 L 18.34375 20.644531 Z M 46.863281 65.109375 L 13.152344 65.109375 L 13.152344 21.546875 L 32.117188 21.546875 C 28.367188 24.183594 26.09375 28.464844 26.09375 33.070312 C 26.09375 33.675781 26.144531 34.289062 26.226562 34.898438 L 16.734375 34.898438 C 16.484375 34.898438 16.285156 35.101562 16.285156 35.351562 L 16.285156 61.003906 C 16.285156 61.253906 16.484375 61.453125 16.734375 61.453125 L 43.28125 61.453125 C 43.53125 61.453125 43.734375 61.253906 43.734375 61.003906 L 43.734375 46.800781 C 44.820312 46.546875 45.871094 46.164062 46.867188 45.660156 L 46.867188 65.109375 Z M 40.269531 47.199219 C 40.3125 47.199219 40.355469 47.199219 40.398438 47.199219 C 41.207031 47.199219 42.023438 47.128906 42.828125 46.992188 L 42.828125 60.550781 L 40.269531 60.550781 Z M 39.363281 60.550781 L 36.808594 60.550781 L 36.808594 46.746094 C 37.640625 46.960938 38.5 47.097656 39.363281 47.15625 Z M 35.902344 60.550781 L 33.347656 60.550781 L 33.347656 45.363281 C 34.15625 45.816406 35.011719 46.1875 35.902344 46.480469 Z M 32.441406 60.550781 L 29.886719 60.550781 L 29.886719 42.652344 C 30.648438 43.472656 31.507812 44.1875 32.441406 44.804688 Z M 23.539062 56.167969 L 23.539062 52.691406 L 28.980469 52.691406 L 28.980469 56.167969 Z M 23.539062 47.410156 L 23.539062 43.933594 L 28.980469 43.933594 L 28.980469 47.410156 Z M 17.1875 39.554688 L 22.632812 39.554688 L 22.632812 60.550781 L 17.1875 60.550781 Z M 17.1875 38.648438 L 17.1875 35.800781 L 22.632812 35.800781 L 22.632812 38.648438 Z M 23.539062 38.648438 L 23.539062 35.800781 L 26.371094 35.800781 C 26.5625 36.773438 26.859375 37.726562 27.261719 38.648438 Z M 47.769531 61.117188 L 47.769531 45.167969 C 49.464844 44.15625 50.921875 42.816406 52.0625 41.230469 L 52.0625 61.117188 Z M 52.121094 39.472656 C 50.9375 41.574219 49.199219 43.320312 47.09375 44.523438 C 45.875 45.222656 44.5625 45.722656 43.1875 46.007812 C 42.082031 46.238281 40.953125 46.335938 39.835938 46.28125 C 38.691406 46.238281 37.566406 46.050781 36.484375 45.722656 C 35.292969 45.363281 34.167969 44.847656 33.140625 44.1875 C 31.855469 43.375 30.730469 42.351562 29.789062 41.148438 C 29.246094 40.460938 28.769531 39.703125 28.367188 38.902344 C 27.792969 37.742188 27.394531 36.519531 27.1875 35.273438 C 27.0625 34.542969 27 33.800781 27 33.070312 C 27 28.265625 29.644531 23.832031 33.902344 21.492188 C 35.875 20.410156 38.121094 19.835938 40.398438 19.835938 C 43.121094 19.835938 45.738281 20.636719 47.964844 22.15625 C 49.507812 23.195312 50.835938 24.574219 51.8125 26.148438 C 53.109375 28.21875 53.792969 30.613281 53.792969 33.070312 C 53.789062 35.304688 53.210938 37.519531 52.121094 39.472656 Z M 66.566406 14.457031 L 56.667969 22.53125 L 51.976562 17.894531 L 52.441406 17.4375 C 52.449219 17.429688 52.457031 17.421875 52.460938 17.417969 L 60.085938 9.882812 L 66.566406 9.882812 Z M 66.566406 14.457031 " fill-opacity="1" fill-rule="nonzero"/></g><path fill="#fb7439" d="M 33.625 31.214844 C 33.667969 31.21875 33.710938 31.222656 33.753906 31.222656 C 34.582031 31.222656 35.285156 30.585938 35.351562 29.75 C 35.386719 29.328125 35.25 28.917969 34.972656 28.59375 C 34.691406 28.269531 34.300781 28.070312 33.871094 28.039062 C 33.441406 28.007812 33.023438 28.144531 32.699219 28.425781 C 32.375 28.703125 32.179688 29.085938 32.148438 29.507812 C 32.117188 29.929688 32.25 30.339844 32.527344 30.664062 C 32.808594 30.988281 33.199219 31.183594 33.625 31.214844 Z M 33.625 31.214844 " fill-opacity="1" fill-rule="nonzero"/><path fill="#fb7439" d="M 34.886719 35.019531 C 34.785156 34.578125 34.773438 34.125 34.847656 33.671875 C 34.921875 33.191406 34.757812 32.707031 34.40625 32.378906 C 34.058594 32.050781 33.589844 31.925781 33.128906 32.027344 L 33.058594 32.042969 C 32.609375 32.132812 32.230469 32.4375 32.046875 32.851562 C 31.472656 34.113281 31.648438 35.273438 31.75 35.710938 C 32.015625 36.898438 32.691406 37.699219 33.214844 38.164062 C 33.488281 38.398438 33.820312 38.527344 34.175781 38.527344 C 34.285156 38.527344 34.394531 38.511719 34.507812 38.488281 L 34.566406 38.472656 C 35.03125 38.371094 35.414062 38.046875 35.589844 37.605469 C 35.761719 37.171875 35.710938 36.683594 35.449219 36.296875 C 35.179688 35.910156 34.988281 35.46875 34.886719 35.019531 Z M 34.886719 35.019531 " fill-opacity="1" fill-rule="nonzero"/></svg>