<svg xmlns="http://www.w3.org/2000/svg" xmlns:xlink="http://www.w3.org/1999/xlink" width="100" zoomAndPan="magnify" viewBox="0 0 75 74.999997" height="100" preserveAspectRatio="xMidYMid meet" version="1.0"><defs><clipPath id="d582d7afce"><path d="M 10.417969 12.6875 L 64.417969 12.6875 L 64.417969 62.1875 L 10.417969 62.1875 Z M 10.417969 12.6875 " clip-rule="nonzero"/></clipPath></defs><g clip-path="url(#d582d7afce)"><path fill="#fb7439" d="M 22.742188 29.34375 L 21.019531 27.621094 L 16.351562 32.28125 C 15.992188 32.644531 15.40625 32.644531 15.042969 32.28125 L 14.230469 31.46875 L 13.914062 36.445312 L 18.890625 36.132812 L 18.078125 35.316406 C 17.714844 34.953125 17.714844 34.367188 18.078125 34.003906 Z M 19.710938 26.308594 L 10.789062 17.390625 C 10.429688 17.03125 10.429688 16.441406 10.789062 16.082031 L 13.824219 13.050781 C 14.1875 12.6875 14.773438 12.6875 15.132812 13.050781 L 24.707031 22.621094 C 24.886719 22.804688 24.976562 23.039062 24.976562 23.273438 L 24.976562 29.34375 C 24.976562 29.59375 24.875 29.828125 24.699219 30.003906 L 20.039062 34.660156 L 21.648438 36.269531 C 22.207031 36.828125 21.847656 37.796875 21.054688 37.847656 L 12.867188 38.355469 C 12.359375 38.324219 11.972656 37.882812 12.003906 37.375 L 12.507812 29.359375 C 12.539062 28.484375 13.539062 28.15625 14.089844 28.707031 L 15.699219 30.316406 Z M 12.753906 16.738281 L 23.125 27.105469 L 23.125 23.660156 L 14.480469 15.011719 Z M 53.316406 36.34375 L 62.230469 27.429688 L 60.507812 25.707031 L 51.863281 34.347656 L 51.863281 37.796875 Z M 64.191406 28.082031 L 55.277344 37 L 59.289062 41.011719 L 60.894531 39.402344 C 61.445312 38.851562 62.449219 39.175781 62.476562 40.054688 L 62.980469 48.066406 C 63.019531 48.625 62.554688 49.085938 61.992188 49.046875 L 53.933594 48.539062 C 53.132812 48.488281 52.78125 47.519531 53.339844 46.964844 L 53.335938 46.960938 L 54.941406 45.351562 C 54.421875 44.832031 50.300781 40.742188 50.175781 40.566406 C 50.066406 40.410156 50.007812 40.222656 50.007812 40.035156 L 50.007812 33.96875 C 50.007812 33.730469 50.097656 33.492188 50.28125 33.3125 L 59.851562 23.742188 C 60.214844 23.378906 60.800781 23.378906 61.160156 23.742188 L 64.191406 26.773438 C 64.558594 27.136719 64.558594 27.71875 64.191406 28.082031 Z M 53.96875 38.3125 L 52.246094 40.035156 L 56.910156 44.699219 C 57.269531 45.0625 57.269531 45.644531 56.910156 46.007812 L 56.09375 46.824219 L 61.074219 47.136719 L 60.757812 42.160156 L 59.941406 42.972656 C 59.578125 43.339844 58.996094 43.339844 58.632812 42.972656 Z M 37.828125 29.136719 C 37.828125 28.625 38.242188 28.207031 38.753906 28.207031 C 39.265625 28.207031 39.679688 28.625 39.679688 29.136719 L 39.679688 29.859375 L 40.417969 30.203125 C 40.882812 30.417969 41.085938 30.964844 40.871094 31.433594 C 40.65625 31.894531 40.105469 32.097656 39.644531 31.882812 L 38.421875 31.3125 C 38.074219 31.179688 37.828125 30.84375 37.828125 30.449219 Z M 42.273438 25.675781 C 42.273438 25.164062 42.691406 24.75 43.203125 24.75 C 43.710938 24.75 44.125 25.164062 44.125 25.675781 L 44.125 26.375 L 44.796875 26.722656 C 45.25 26.957031 45.429688 27.515625 45.195312 27.96875 C 44.960938 28.421875 44.40625 28.601562 43.949219 28.367188 L 42.832031 27.785156 C 42.503906 27.644531 42.273438 27.316406 42.273438 26.9375 Z M 42.273438 46.847656 C 42.273438 46.335938 42.691406 45.921875 43.203125 45.921875 C 43.710938 45.921875 44.125 46.335938 44.125 46.847656 L 44.125 47.429688 L 44.648438 47.59375 C 45.136719 47.746094 45.410156 48.265625 45.253906 48.75 C 45.105469 49.238281 44.585938 49.511719 44.101562 49.359375 L 42.976562 49.011719 C 42.574219 48.90625 42.273438 48.542969 42.273438 48.109375 Z M 42.273438 41.550781 C 42.273438 41.039062 42.691406 40.628906 43.203125 40.628906 C 43.710938 40.628906 44.125 41.039062 44.125 41.550781 L 44.125 42.167969 L 44.6875 42.371094 C 45.167969 42.546875 45.417969 43.078125 45.242188 43.558594 C 45.070312 44.035156 44.539062 44.285156 44.058594 44.113281 L 42.953125 43.707031 C 42.5625 43.597656 42.273438 43.238281 42.273438 42.816406 Z M 42.273438 36.257812 C 42.273438 35.746094 42.691406 35.335938 43.203125 35.335938 C 43.710938 35.335938 44.125 35.746094 44.125 36.257812 L 44.125 36.90625 L 44.726562 37.15625 C 45.199219 37.351562 45.421875 37.894531 45.230469 38.363281 C 45.03125 38.835938 44.492188 39.058594 44.019531 38.863281 L 42.898438 38.398438 C 42.535156 38.273438 42.273438 37.929688 42.273438 37.519531 Z M 42.273438 30.964844 C 42.273438 30.453125 42.691406 30.042969 43.203125 30.042969 C 43.710938 30.042969 44.125 30.453125 44.125 30.964844 L 44.125 31.644531 L 44.761719 31.941406 C 45.226562 32.15625 45.425781 32.707031 45.210938 33.167969 C 44.992188 33.632812 44.445312 33.828125 43.984375 33.617188 L 42.886719 33.101562 C 42.527344 32.972656 42.273438 32.632812 42.273438 32.230469 Z M 37.828125 23.613281 C 37.828125 23.101562 38.242188 22.6875 38.753906 22.6875 C 39.265625 22.6875 39.679688 23.101562 39.679688 23.613281 L 39.679688 24.367188 L 40.453125 24.765625 C 40.90625 25 41.085938 25.558594 40.851562 26.011719 C 40.617188 26.464844 40.0625 26.644531 39.609375 26.40625 L 38.390625 25.78125 C 38.058594 25.640625 37.828125 25.3125 37.828125 24.929688 Z M 37.828125 45.699219 C 37.828125 45.191406 38.242188 44.773438 38.753906 44.773438 C 39.265625 44.773438 39.679688 45.191406 39.679688 45.699219 L 39.679688 46.335938 L 40.304688 46.527344 C 40.789062 46.679688 41.066406 47.195312 40.914062 47.683594 C 40.761719 48.167969 40.25 48.445312 39.757812 48.292969 L 38.550781 47.917969 C 38.136719 47.828125 37.828125 47.457031 37.828125 47.015625 Z M 37.828125 40.179688 C 37.828125 39.667969 38.242188 39.253906 38.753906 39.253906 C 39.265625 39.253906 39.679688 39.667969 39.679688 40.179688 L 39.679688 40.847656 L 40.34375 41.085938 C 40.824219 41.261719 41.074219 41.789062 40.898438 42.269531 C 40.726562 42.75 40.195312 42.996094 39.714844 42.820312 L 38.507812 42.386719 C 38.113281 42.277344 37.828125 41.917969 37.828125 41.492188 Z M 37.828125 34.65625 C 37.828125 34.144531 38.242188 33.730469 38.753906 33.730469 C 39.265625 33.730469 39.679688 34.144531 39.679688 34.65625 L 39.679688 35.359375 L 40.382812 35.644531 C 40.855469 35.839844 41.078125 36.378906 40.886719 36.851562 C 40.691406 37.320312 40.152344 37.546875 39.679688 37.351562 L 38.472656 36.851562 C 38.101562 36.734375 37.828125 36.382812 37.828125 35.96875 Z M 25.359375 46.144531 C 25.359375 45.632812 25.773438 45.21875 26.285156 45.21875 C 26.796875 45.21875 27.210938 45.632812 27.210938 46.144531 L 27.210938 54.714844 L 29.953125 54.714844 L 29.953125 43.046875 C 29.953125 42.535156 30.367188 42.121094 30.878906 42.121094 C 31.390625 42.121094 31.804688 42.535156 31.804688 43.046875 L 31.804688 54.714844 L 34.398438 54.714844 L 34.398438 34.949219 L 22.761719 43.261719 L 22.761719 54.714844 L 25.355469 54.714844 L 25.355469 46.144531 Z M 20.914062 54.714844 L 20.914062 42.789062 C 20.914062 42.457031 21.09375 42.160156 21.359375 42 L 26.507812 38.320312 L 26.507812 26.597656 C 26.507812 26.265625 26.6875 25.96875 26.953125 25.804688 L 34.402344 20.484375 L 34.402344 15.433594 L 34.40625 15.433594 C 34.402344 14.710938 35.207031 14.257812 35.824219 14.65625 L 48.113281 22.527344 C 48.402344 22.6875 48.59375 22.992188 48.59375 23.34375 L 48.59375 54.714844 L 50.945312 54.714844 C 51.457031 54.714844 51.867188 55.125 51.867188 55.636719 L 51.867188 61.382812 C 51.867188 61.894531 51.457031 62.308594 50.945312 62.308594 L 18.5625 62.308594 C 18.050781 62.308594 17.636719 61.894531 17.636719 61.382812 L 17.636719 55.636719 C 17.636719 55.125 18.050781 54.714844 18.5625 54.714844 Z M 28.359375 36.996094 L 34.402344 32.679688 L 34.402344 22.753906 L 28.359375 27.070312 Z M 46.738281 54.714844 L 46.738281 23.847656 L 36.25 17.125 L 36.25 54.714844 Z M 50.019531 56.566406 C 39.84375 56.566406 29.667969 56.566406 19.488281 56.566406 L 19.488281 60.453125 L 50.019531 60.453125 Z M 50.019531 56.566406 " fill-opacity="1" fill-rule="nonzero"/></g></svg>