<svg xmlns="http://www.w3.org/2000/svg" xmlns:xlink="http://www.w3.org/1999/xlink" width="100" zoomAndPan="magnify" viewBox="0 0 75 74.999997" height="100" preserveAspectRatio="xMidYMid meet" version="1.0"><defs><clipPath id="f2b5418f4c"><path d="M 9.21875 9.148438 L 65.46875 9.148438 L 65.46875 66 L 9.21875 66 Z M 9.21875 9.148438 " clip-rule="nonzero"/></clipPath></defs><g clip-path="url(#f2b5418f4c)"><path fill="#fb7439" d="M 58.703125 47.082031 L 54.652344 45.996094 L 59.21875 28.949219 L 63.445312 30.082031 Z M 52.386719 9.164062 L 51.683594 9.164062 C 50.246094 9.335938 49.125 10.566406 49.125 12.054688 L 49.125 14.230469 L 45.75 14.230469 L 45.75 12.054688 C 45.75 10.566406 44.628906 9.335938 43.183594 9.164062 L 42.484375 9.164062 C 41.042969 9.335938 39.925781 10.566406 39.925781 12.054688 L 39.925781 14.230469 L 36.542969 14.230469 L 36.542969 12.054688 C 36.542969 10.566406 35.421875 9.335938 33.984375 9.164062 L 33.28125 9.164062 C 31.835938 9.335938 30.71875 10.566406 30.71875 12.054688 L 30.71875 14.230469 L 27.339844 14.230469 L 27.339844 12.054688 C 27.339844 10.566406 26.222656 9.335938 24.777344 9.164062 L 24.078125 9.164062 C 22.636719 9.335938 21.515625 10.566406 21.515625 12.054688 L 21.515625 14.230469 L 19.460938 14.230469 C 18.230469 14.230469 17.226562 15.234375 17.226562 16.464844 L 17.226562 32.875 C 13.855469 34.5 11.523438 37.953125 11.523438 41.9375 C 11.523438 44.117188 12.222656 46.136719 13.40625 47.785156 L 12.425781 49.488281 C 11.988281 50.238281 12.246094 51.203125 13 51.640625 L 13.054688 51.671875 L 9.554688 57.742188 C 8.855469 58.945312 9.269531 60.488281 10.46875 61.183594 C 10.871094 61.410156 11.300781 61.519531 11.730469 61.519531 C 12.597656 61.519531 13.445312 61.066406 13.910156 60.261719 L 17.226562 54.519531 L 17.226562 58.125 C 17.226562 58.3125 17.300781 58.492188 17.433594 58.625 L 24.425781 65.617188 C 24.5625 65.75 24.738281 65.824219 24.925781 65.824219 L 57.007812 65.824219 C 58.238281 65.824219 59.242188 64.824219 59.242188 63.589844 L 59.242188 49.128906 L 59.78125 48.339844 C 59.824219 48.277344 59.855469 48.207031 59.875 48.132812 L 65.625 27.527344 C 66.183594 25.445312 65.070312 23.332031 63.148438 22.816406 C 61.664062 22.421875 60.125 23.085938 59.242188 24.363281 L 59.242188 16.464844 C 59.242188 15.234375 58.238281 14.230469 57.007812 14.230469 L 54.953125 14.230469 L 54.953125 12.054688 C 54.953125 10.566406 53.832031 9.335938 52.390625 9.164062 Z M 56.394531 50.800781 L 55.160156 52.617188 L 54.925781 50.425781 C 55.390625 50.617188 55.882812 50.746094 56.394531 50.800781 Z M 57.949219 48.519531 C 57.949219 48.519531 57.335938 49.421875 57.335938 49.421875 C 56.363281 49.472656 55.511719 49.246094 54.742188 48.734375 L 54.605469 47.441406 L 58.054688 48.367188 Z M 57.828125 63.589844 L 57.828125 51.203125 L 55.246094 54.996094 C 55.117188 55.191406 54.898438 55.304688 54.667969 55.304688 C 54.609375 55.304688 54.550781 55.296875 54.492188 55.285156 C 54.207031 55.210938 53.992188 54.96875 53.964844 54.675781 L 53.085938 46.570312 C 53.078125 46.484375 53.085938 46.398438 53.109375 46.3125 L 57.828125 28.691406 L 57.828125 23.316406 L 18.632812 23.316406 L 18.632812 32.320312 C 19.566406 32.035156 20.554688 31.882812 21.582031 31.882812 C 23.851562 31.882812 25.949219 32.640625 27.636719 33.917969 L 50.316406 33.917969 C 50.703125 33.917969 51.019531 34.230469 51.019531 34.621094 C 51.019531 35.011719 50.703125 35.328125 50.316406 35.328125 L 29.148438 35.328125 C 29.847656 36.125 30.421875 37.027344 30.839844 38.015625 L 52.128906 38.015625 C 52.515625 38.015625 52.832031 38.332031 52.832031 38.722656 C 52.832031 39.113281 52.515625 39.429688 52.128906 39.429688 L 31.324219 39.429688 C 31.53125 40.230469 31.640625 41.074219 31.640625 41.941406 C 31.640625 47.484375 27.125 52 21.582031 52 C 21.25 52 20.925781 51.980469 20.601562 51.949219 L 19.625 53.644531 C 19.417969 54.011719 19.074219 54.269531 18.667969 54.378906 C 18.65625 54.382812 18.648438 54.386719 18.632812 54.386719 L 18.632812 57.421875 L 23.441406 57.421875 C 24.652344 57.421875 25.628906 58.402344 25.628906 59.609375 L 25.628906 64.414062 L 57.007812 64.414062 C 57.457031 64.414062 57.828125 64.046875 57.828125 63.59375 Z M 12.6875 59.554688 C 12.378906 60.082031 11.703125 60.265625 11.171875 59.960938 C 10.644531 59.65625 10.46875 58.976562 10.769531 58.449219 L 14.277344 52.375 L 16.191406 53.484375 Z M 24.21875 63.414062 L 19.632812 58.828125 L 23.441406 58.828125 C 23.871094 58.828125 24.21875 59.179688 24.21875 59.609375 Z M 19.121094 51.691406 L 18.402344 52.941406 C 18.375 52.988281 18.328125 53.007812 18.300781 53.015625 C 18.269531 53.023438 18.222656 53.027344 18.175781 53 L 13.703125 50.417969 C 13.625 50.375 13.597656 50.269531 13.640625 50.195312 L 14.367188 48.9375 C 15.644531 50.257812 17.28125 51.230469 19.121094 51.691406 Z M 21.582031 33.289062 C 26.351562 33.289062 30.226562 37.171875 30.226562 41.9375 C 30.226562 46.707031 26.351562 50.585938 21.582031 50.585938 C 16.8125 50.585938 12.933594 46.707031 12.933594 41.9375 C 12.933594 37.171875 16.8125 33.289062 21.582031 33.289062 Z M 19.457031 15.640625 L 21.515625 15.640625 L 21.515625 17.816406 C 21.515625 19.421875 22.820312 20.730469 24.425781 20.730469 C 26.027344 20.730469 27.339844 19.421875 27.339844 17.816406 L 27.339844 15.640625 L 30.71875 15.640625 L 30.71875 17.816406 C 30.71875 19.421875 32.023438 20.730469 33.632812 20.730469 C 35.242188 20.730469 36.542969 19.421875 36.542969 17.816406 L 36.542969 15.640625 L 39.925781 15.640625 L 39.925781 17.816406 C 39.925781 19.421875 41.230469 20.730469 42.835938 20.730469 C 44.4375 20.730469 45.75 19.421875 45.75 17.816406 L 45.75 15.640625 L 49.125 15.640625 L 49.125 17.816406 C 49.125 19.421875 50.433594 20.730469 52.035156 20.730469 C 53.640625 20.730469 54.953125 19.421875 54.953125 17.816406 L 54.953125 15.640625 L 57.007812 15.640625 C 57.460938 15.640625 57.828125 16.011719 57.828125 16.464844 L 57.828125 21.90625 L 18.632812 21.90625 L 18.632812 16.464844 C 18.632812 16.011719 19 15.640625 19.457031 15.640625 Z M 22.925781 12.054688 C 22.925781 11.226562 23.597656 10.550781 24.425781 10.550781 C 25.25 10.550781 25.925781 11.226562 25.925781 12.054688 L 25.925781 17.816406 C 25.925781 18.644531 25.253906 19.316406 24.425781 19.316406 C 23.59375 19.316406 22.925781 18.644531 22.925781 17.816406 Z M 32.128906 12.054688 C 32.128906 11.226562 32.800781 10.550781 33.632812 10.550781 C 34.460938 10.550781 35.132812 11.226562 35.132812 12.054688 L 35.132812 17.816406 C 35.132812 18.644531 34.457031 19.316406 33.632812 19.316406 C 32.804688 19.316406 32.128906 18.644531 32.128906 17.816406 Z M 41.328125 12.054688 C 41.328125 11.226562 42.007812 10.550781 42.832031 10.550781 C 43.65625 10.550781 44.335938 11.226562 44.335938 12.054688 L 44.335938 17.816406 C 44.335938 18.644531 43.664062 19.316406 42.832031 19.316406 C 42 19.316406 41.328125 18.644531 41.328125 17.816406 Z M 50.535156 12.054688 C 50.535156 11.226562 51.207031 10.550781 52.035156 10.550781 C 52.859375 10.550781 53.539062 11.226562 53.539062 12.054688 L 53.539062 17.816406 C 53.539062 18.644531 52.863281 19.316406 52.035156 19.316406 C 51.203125 19.316406 50.535156 18.644531 50.535156 17.816406 Z M 60.003906 26.019531 C 60.363281 24.691406 61.605469 23.867188 62.777344 24.179688 C 63.949219 24.496094 64.617188 25.832031 64.261719 27.152344 L 63.824219 28.722656 L 59.582031 27.589844 L 60 26.019531 Z M 50.109375 30.519531 C 50.109375 30.910156 49.792969 31.222656 49.402344 31.222656 L 26.660156 31.222656 C 26.265625 31.222656 25.953125 30.910156 25.953125 30.519531 C 25.953125 30.128906 26.265625 29.8125 26.660156 29.8125 L 49.402344 29.8125 C 49.792969 29.8125 50.109375 30.128906 50.109375 30.519531 Z M 52.832031 26.417969 C 52.832031 26.808594 52.515625 27.125 52.125 27.125 L 23.933594 27.125 C 23.546875 27.125 23.230469 26.808594 23.230469 26.417969 C 23.230469 26.03125 23.546875 25.714844 23.933594 25.714844 L 52.125 25.714844 C 52.515625 25.714844 52.832031 26.03125 52.832031 26.417969 Z M 21.582031 41.082031 C 22.050781 41.082031 22.4375 41.464844 22.4375 41.9375 C 22.4375 42.410156 22.050781 42.792969 21.582031 42.792969 C 21.109375 42.792969 20.726562 42.410156 20.726562 41.9375 C 20.726562 41.464844 21.109375 41.082031 21.582031 41.082031 Z M 21.582031 44.203125 C 20.332031 44.203125 19.3125 43.1875 19.3125 41.9375 C 19.3125 40.6875 20.332031 39.671875 21.582031 39.671875 C 22.832031 39.671875 23.847656 40.6875 23.847656 41.9375 C 23.847656 43.1875 22.832031 44.203125 21.582031 44.203125 Z M 17.800781 40.375 C 17.597656 40.855469 17.488281 41.386719 17.488281 41.9375 C 17.488281 42.492188 17.605469 43.023438 17.800781 43.503906 C 17.085938 43.089844 16.347656 42.5625 15.570312 41.917969 C 16.359375 41.289062 17.101562 40.777344 17.800781 40.375 Z M 25.355469 43.503906 C 25.558594 43.023438 25.667969 42.492188 25.667969 41.9375 C 25.667969 41.382812 25.558594 40.855469 25.355469 40.375 C 26.0625 40.777344 26.796875 41.289062 27.589844 41.917969 C 26.816406 42.5625 26.078125 43.089844 25.355469 43.503906 Z M 21.582031 39.261719 C 23.054688 39.261719 24.257812 40.460938 24.257812 41.9375 C 24.257812 43.414062 23.054688 44.617188 21.582031 44.617188 C 20.105469 44.617188 18.902344 43.414062 18.902344 41.9375 C 18.902344 40.460938 20.101562 39.261719 21.582031 39.261719 Z M 29.15625 42.433594 C 26.425781 44.855469 24.007812 46.066406 21.582031 46.066406 C 19.15625 46.066406 16.730469 44.855469 14.007812 42.433594 C 13.855469 42.300781 13.769531 42.105469 13.769531 41.898438 C 13.773438 41.695312 13.863281 41.5 14.015625 41.367188 C 19.601562 36.636719 23.5625 36.636719 29.140625 41.367188 C 29.296875 41.5 29.390625 41.695312 29.390625 41.898438 C 29.394531 42.105469 29.304688 42.300781 29.15625 42.433594 Z M 45.59375 49.542969 C 45.867188 49.820312 45.867188 50.265625 45.59375 50.542969 L 42 54.132812 C 41.867188 54.269531 41.683594 54.339844 41.503906 54.339844 C 41.320312 54.339844 41.140625 54.269531 41.007812 54.132812 L 38.957031 52.085938 C 38.683594 51.808594 38.683594 51.363281 38.957031 51.085938 C 39.234375 50.8125 39.679688 50.8125 39.953125 51.085938 L 41.5 52.636719 L 44.59375 49.542969 C 44.867188 49.269531 45.320312 49.269531 45.59375 49.542969 Z M 42.277344 58.417969 C 39.328125 56.875 36.507812 54.257812 36.921875 47.214844 C 38.941406 47.050781 40.738281 46.425781 42.277344 45.347656 C 43.816406 46.425781 45.613281 47.054688 47.628906 47.214844 C 48.042969 54.257812 45.222656 56.875 42.277344 58.417969 Z M 48.3125 45.839844 C 48.671875 45.851562 48.964844 46.132812 48.996094 46.488281 C 49.703125 55.144531 45.945312 58.171875 42.585938 59.839844 C 42.492188 59.890625 42.386719 59.914062 42.277344 59.914062 C 42.167969 59.914062 42.058594 59.890625 41.964844 59.839844 C 38.605469 58.171875 34.847656 55.144531 35.558594 46.488281 C 35.585938 46.132812 35.878906 45.851562 36.238281 45.839844 C 38.441406 45.769531 40.273438 45.140625 41.839844 43.914062 C 42.097656 43.710938 42.460938 43.710938 42.714844 43.914062 C 44.277344 45.140625 46.113281 45.769531 48.3125 45.839844 Z M 42.277344 61.3125 C 38.011719 59.117188 33.878906 55.394531 34.558594 45.140625 C 37.488281 44.945312 40.082031 44.042969 42.277344 42.457031 C 44.46875 44.042969 47.066406 44.945312 49.992188 45.140625 C 50.671875 55.394531 46.542969 59.117188 42.277344 61.3125 Z M 50.675781 43.761719 C 51.035156 43.773438 51.328125 44.054688 51.359375 44.410156 C 51.78125 49.535156 51.125 53.546875 49.355469 56.671875 C 47.90625 59.230469 45.757812 61.15625 42.589844 62.734375 C 42.492188 62.785156 42.386719 62.808594 42.277344 62.808594 C 42.167969 62.808594 42.0625 62.785156 41.964844 62.734375 C 38.796875 61.15625 36.648438 59.230469 35.199219 56.671875 C 33.429688 53.546875 32.777344 49.535156 33.195312 44.410156 C 33.230469 44.050781 33.519531 43.773438 33.878906 43.761719 C 36.964844 43.664062 39.640625 42.738281 41.839844 41.019531 C 42.101562 40.816406 42.460938 40.816406 42.714844 41.019531 C 44.914062 42.738281 47.59375 43.664062 50.675781 43.761719 Z M 50.675781 43.761719 " fill-opacity="1" fill-rule="evenodd"/></g></svg>