<svg xmlns="http://www.w3.org/2000/svg" xmlns:xlink="http://www.w3.org/1999/xlink" width="100" zoomAndPan="magnify" viewBox="0 0 75 74.999997" height="100" preserveAspectRatio="xMidYMid meet" version="1.0"><defs><clipPath id="8773700a01"><path d="M 9.972656 9.972656 L 64.722656 9.972656 L 64.722656 64.722656 L 9.972656 64.722656 Z M 9.972656 9.972656 " clip-rule="nonzero"/></clipPath></defs><g clip-path="url(#8773700a01)"><path fill="#fb7439" d="M 22.273438 14.203125 C 22.273438 13.828125 22.582031 13.519531 22.960938 13.519531 L 24.59375 13.519531 C 24.972656 13.519531 25.277344 13.828125 25.277344 14.203125 C 25.277344 14.582031 24.972656 14.890625 24.59375 14.890625 L 22.960938 14.890625 C 22.582031 14.890625 22.273438 14.582031 22.273438 14.203125 Z M 27.242188 14.890625 L 28.875 14.890625 C 29.253906 14.890625 29.5625 14.582031 29.5625 14.203125 C 29.5625 13.828125 29.253906 13.519531 28.875 13.519531 L 27.242188 13.519531 C 26.863281 13.519531 26.558594 13.828125 26.558594 14.203125 C 26.558594 14.582031 26.863281 14.890625 27.242188 14.890625 Z M 45.523438 14.890625 L 53.160156 14.890625 C 53.539062 14.890625 53.84375 14.582031 53.84375 14.203125 C 53.84375 13.828125 53.539062 13.519531 53.160156 13.519531 L 45.523438 13.519531 C 45.144531 13.519531 44.835938 13.828125 44.835938 14.203125 C 44.835938 14.582031 45.144531 14.890625 45.523438 14.890625 Z M 64.019531 63.804688 L 62.339844 64.761719 C 62.039062 64.929688 61.710938 65.015625 61.375 65.015625 C 61.199219 65.015625 61.019531 64.992188 60.84375 64.941406 C 60.335938 64.800781 59.917969 64.472656 59.660156 64.015625 L 56.894531 59.101562 C 56.546875 58.488281 56.570312 57.761719 56.890625 57.179688 L 55.367188 54.539062 C 54.21875 54.949219 53.019531 55.15625 51.804688 55.15625 C 50.875 55.15625 49.941406 55.035156 49.019531 54.789062 C 44.378906 53.546875 41.265625 49.414062 41.09375 44.847656 L 36.359375 44.847656 C 36.226562 47.101562 35.03125 48.8125 33.875 50.472656 C 33.171875 51.476562 32.507812 52.429688 32.066406 53.492188 C 30.800781 56.539062 31.929688 59.089844 33.023438 61.558594 C 33.414062 62.4375 33.785156 63.269531 34.050781 64.125 C 34.117188 64.335938 34.078125 64.5625 33.949219 64.738281 C 33.820312 64.914062 33.617188 65.015625 33.398438 65.015625 L 19.867188 65.015625 C 19.519531 65.015625 19.226562 64.753906 19.1875 64.410156 L 18.640625 59.695312 C 18.578125 59.148438 18.132812 58.753906 17.585938 58.753906 L 15.097656 58.753906 C 14.339844 58.753906 13.621094 58.429688 13.128906 57.859375 C 12.636719 57.292969 12.417969 56.535156 12.527344 55.785156 C 12.539062 55.679688 12.5625 55.566406 12.585938 55.441406 C 12.628906 55.21875 12.714844 54.746094 12.648438 54.621094 C 12.277344 54.195312 12.109375 53.691406 12.15625 53.121094 C 11.886719 52.84375 11.535156 52.378906 11.765625 51.757812 C 11.792969 51.691406 11.824219 51.609375 11.863281 51.523438 C 11.894531 51.453125 11.941406 51.339844 11.980469 51.238281 L 11.03125 50.976562 C 10.585938 50.855469 10.222656 50.523438 10.0625 50.089844 C 9.902344 49.660156 9.960938 49.171875 10.21875 48.792969 L 12.191406 45.871094 C 12.511719 45.394531 12.5625 45.058594 12.5625 44.4375 C 12.5625 40.308594 14.644531 36.546875 18.140625 34.351562 L 18.140625 13.140625 C 18.140625 11.394531 19.5625 9.972656 21.308594 9.972656 L 54.8125 9.972656 C 56.558594 9.972656 57.976562 11.394531 57.976562 13.140625 L 57.976562 35.714844 C 61.523438 38.234375 63.316406 42.78125 62.128906 47.21875 C 61.558594 49.34375 60.375 51.199219 58.734375 52.59375 L 60.242188 55.210938 C 60.433594 55.207031 60.625 55.230469 60.8125 55.28125 C 61.320312 55.421875 61.742188 55.753906 61.996094 56.210938 L 64.761719 61.125 C 65.292969 62.066406 64.960938 63.269531 64.019531 63.804688 Z M 56.609375 34.890625 L 56.609375 18.433594 L 19.511719 18.433594 L 19.511719 41.679688 C 19.511719 42.671875 20.316406 43.476562 21.308594 43.476562 L 41.128906 43.476562 C 41.183594 42.878906 41.289062 42.277344 41.449219 41.679688 C 42.976562 35.976562 48.859375 32.582031 54.558594 34.109375 C 55.28125 34.304688 55.964844 34.566406 56.609375 34.890625 Z M 19.511719 13.140625 L 19.511719 17.0625 L 56.609375 17.0625 L 56.609375 13.140625 C 56.609375 12.148438 55.804688 11.34375 54.8125 11.34375 L 21.308594 11.34375 C 20.316406 11.34375 19.511719 12.148438 19.511719 13.140625 Z M 34.984375 44.847656 L 21.308594 44.847656 C 19.5625 44.847656 18.140625 43.425781 18.140625 41.679688 L 18.140625 36.011719 C 15.488281 38 13.933594 41.082031 13.933594 44.4375 C 13.933594 45.261719 13.835938 45.886719 13.328125 46.636719 L 11.355469 49.558594 C 11.351562 49.566406 11.335938 49.585938 11.347656 49.617188 C 11.359375 49.644531 11.382812 49.652344 11.394531 49.65625 L 12.625 49.992188 C 12.929688 50.078125 13.167969 50.269531 13.296875 50.539062 C 13.550781 51.0625 13.292969 51.664062 13.125 52.0625 C 13.113281 52.082031 13.105469 52.105469 13.097656 52.125 C 13.140625 52.167969 13.199219 52.226562 13.238281 52.265625 C 13.289062 52.3125 13.339844 52.359375 13.382812 52.40625 C 13.542969 52.574219 13.609375 52.8125 13.554688 53.039062 C 13.464844 53.410156 13.566406 53.589844 13.6875 53.730469 C 14.191406 54.3125 14.042969 55.113281 13.929688 55.699219 C 13.910156 55.796875 13.894531 55.894531 13.882812 55.980469 C 13.828125 56.34375 13.929688 56.691406 14.164062 56.964844 C 14.402344 57.234375 14.730469 57.382812 15.097656 57.382812 L 17.582031 57.382812 C 18.820312 57.382812 19.855469 58.308594 20 59.535156 L 20.476562 63.644531 L 32.425781 63.644531 C 32.230469 63.148438 32.003906 62.636719 31.769531 62.109375 C 30.617188 59.507812 29.308594 56.554688 30.800781 52.964844 C 31.300781 51.761719 32.035156 50.707031 32.75 49.6875 C 33.828125 48.144531 34.847656 46.679688 34.984375 44.847656 Z M 56.457031 52.535156 C 58.617188 51.285156 60.160156 49.273438 60.804688 46.867188 C 62.136719 41.894531 59.175781 36.765625 54.207031 35.433594 C 53.398438 35.21875 52.589844 35.117188 51.792969 35.117188 C 47.671875 35.117188 43.890625 37.871094 42.773438 42.035156 C 41.445312 47.007812 44.402344 52.136719 49.375 53.464844 C 51.78125 54.109375 54.296875 53.777344 56.457031 52.535156 Z M 56.636719 53.992188 L 57.9375 56.25 L 58.933594 55.683594 L 57.628906 53.417969 C 57.46875 53.523438 57.308594 53.621094 57.140625 53.71875 C 56.972656 53.816406 56.804688 53.90625 56.636719 53.992188 Z M 63.570312 61.792969 L 60.804688 56.882812 C 60.726562 56.746094 60.601562 56.644531 60.445312 56.601562 C 60.394531 56.589844 60.339844 56.582031 60.285156 56.582031 C 60.1875 56.582031 60.085938 56.609375 59.996094 56.65625 L 58.316406 57.613281 C 58.03125 57.773438 57.929688 58.148438 58.089844 58.433594 L 60.855469 63.34375 C 60.929688 63.484375 61.058594 63.582031 61.210938 63.625 C 61.363281 63.667969 61.523438 63.648438 61.664062 63.570312 L 63.34375 62.613281 C 63.625 62.453125 63.730469 62.078125 63.570312 61.792969 Z M 51.785156 52.789062 C 51.074219 52.789062 50.351562 52.695312 49.628906 52.503906 C 47.480469 51.925781 45.679688 50.546875 44.566406 48.617188 C 43.453125 46.691406 43.15625 44.441406 43.734375 42.289062 C 44.925781 37.851562 49.507812 35.203125 53.945312 36.394531 C 56.097656 36.972656 57.894531 38.351562 59.011719 40.28125 C 60.125 42.207031 60.417969 44.457031 59.84375 46.609375 C 58.847656 50.328125 55.46875 52.789062 51.785156 52.789062 Z M 58.519531 46.253906 C 59.515625 42.542969 57.304688 38.714844 53.59375 37.71875 C 52.988281 37.558594 52.386719 37.480469 51.789062 37.480469 C 48.714844 37.480469 45.890625 39.535156 45.058594 42.644531 C 44.574219 44.445312 44.824219 46.320312 45.753906 47.933594 C 46.683594 49.546875 48.1875 50.699219 49.984375 51.179688 C 53.695312 52.175781 57.523438 49.964844 58.519531 46.253906 Z M 40.820312 38.683594 C 40.820312 39.0625 40.511719 39.367188 40.136719 39.367188 L 22.015625 39.367188 C 21.636719 39.367188 21.328125 39.0625 21.328125 38.683594 C 21.328125 38.304688 21.636719 38 22.015625 38 L 22.960938 38 L 22.960938 33.742188 C 22.960938 33.367188 23.269531 33.058594 23.648438 33.058594 L 27.050781 33.058594 C 27.429688 33.058594 27.738281 33.367188 27.738281 33.742188 L 27.738281 38 L 28.6875 38 L 28.6875 31.175781 C 28.6875 30.796875 28.996094 30.492188 29.371094 30.492188 L 32.777344 30.492188 C 33.15625 30.492188 33.460938 30.796875 33.460938 31.175781 L 33.460938 38 L 34.414062 38 L 34.414062 28.609375 C 34.414062 28.230469 34.722656 27.925781 35.097656 27.925781 L 38.503906 27.925781 C 38.882812 27.925781 39.1875 28.230469 39.1875 28.609375 L 39.1875 38 L 40.136719 38 C 40.511719 38 40.820312 38.304688 40.820312 38.683594 Z M 35.78125 38 L 37.816406 38 L 37.816406 29.296875 L 35.78125 29.296875 Z M 30.058594 38 L 32.089844 38 L 32.089844 31.863281 L 30.058594 31.863281 Z M 24.332031 38 L 26.363281 38 L 26.363281 34.429688 L 24.332031 34.429688 Z M 24.089844 30.066406 C 24.183594 30.066406 24.28125 30.046875 24.371094 30.003906 L 36.183594 24.707031 L 36.039062 25.089844 C 35.902344 25.445312 36.082031 25.839844 36.433594 25.972656 C 36.515625 26.003906 36.597656 26.019531 36.679688 26.019531 C 36.953125 26.019531 37.214844 25.851562 37.320312 25.578125 L 38.054688 23.648438 C 38.1875 23.296875 38.011719 22.898438 37.65625 22.765625 L 35.726562 22.03125 C 35.375 21.898438 34.980469 22.074219 34.84375 22.425781 C 34.710938 22.78125 34.886719 23.175781 35.242188 23.3125 L 35.621094 23.457031 L 23.808594 28.753906 C 23.464844 28.910156 23.308594 29.316406 23.464844 29.660156 C 23.578125 29.914062 23.828125 30.066406 24.089844 30.066406 Z M 57.589844 46.355469 L 56.339844 48.519531 C 56.164062 48.824219 55.789062 48.945312 55.46875 48.804688 L 54.699219 48.460938 C 54.421875 48.664062 54.121094 48.835938 53.804688 48.976562 L 53.71875 49.8125 C 53.683594 50.160156 53.390625 50.425781 53.039062 50.425781 L 50.539062 50.425781 C 50.1875 50.425781 49.894531 50.160156 49.859375 49.8125 L 49.773438 48.976562 C 49.457031 48.835938 49.15625 48.664062 48.875 48.457031 L 48.109375 48.800781 C 47.789062 48.945312 47.414062 48.824219 47.238281 48.519531 L 45.988281 46.355469 C 45.8125 46.050781 45.894531 45.664062 46.179688 45.457031 L 46.859375 44.964844 C 46.839844 44.792969 46.832031 44.621094 46.832031 44.449219 C 46.832031 44.277344 46.839844 44.101562 46.859375 43.929688 L 46.179688 43.4375 C 45.894531 43.234375 45.8125 42.84375 45.988281 42.542969 L 47.238281 40.378906 C 47.414062 40.074219 47.789062 39.949219 48.109375 40.09375 L 48.875 40.4375 C 49.15625 40.234375 49.457031 40.0625 49.773438 39.921875 L 49.859375 39.085938 C 49.894531 38.734375 50.1875 38.472656 50.539062 38.472656 L 53.039062 38.472656 C 53.390625 38.472656 53.683594 38.738281 53.71875 39.085938 L 53.804688 39.921875 C 54.121094 40.0625 54.421875 40.234375 54.699219 40.4375 L 55.46875 40.09375 C 55.789062 39.953125 56.164062 40.074219 56.339844 40.378906 L 57.589844 42.542969 C 57.765625 42.847656 57.683594 43.234375 57.398438 43.441406 L 56.71875 43.933594 C 56.734375 44.101562 56.746094 44.277344 56.746094 44.449219 C 56.746094 44.621094 56.734375 44.792969 56.71875 44.964844 L 57.398438 45.457031 C 57.683594 45.664062 57.765625 46.050781 57.589844 46.355469 Z M 56.09375 46.207031 L 55.578125 45.832031 C 55.359375 45.675781 55.253906 45.40625 55.304688 45.144531 C 55.351562 44.917969 55.375 44.683594 55.375 44.449219 C 55.375 44.214844 55.351562 43.980469 55.304688 43.753906 C 55.253906 43.492188 55.359375 43.222656 55.578125 43.066406 L 56.09375 42.691406 L 55.464844 41.597656 L 54.878906 41.859375 C 54.636719 41.96875 54.351562 41.925781 54.148438 41.75 C 53.792969 41.441406 53.390625 41.207031 52.945312 41.054688 C 52.691406 40.96875 52.515625 40.742188 52.488281 40.476562 L 52.421875 39.84375 L 51.160156 39.84375 L 51.09375 40.476562 C 51.066406 40.742188 50.886719 40.96875 50.632812 41.054688 C 50.191406 41.203125 49.785156 41.4375 49.429688 41.75 C 49.230469 41.925781 48.945312 41.96875 48.699219 41.859375 L 48.117188 41.597656 L 47.484375 42.691406 L 48.003906 43.066406 C 48.21875 43.222656 48.324219 43.488281 48.273438 43.753906 C 48.230469 43.980469 48.207031 44.214844 48.207031 44.449219 C 48.207031 44.679688 48.230469 44.917969 48.273438 45.144531 C 48.324219 45.40625 48.21875 45.675781 48.003906 45.832031 L 47.484375 46.207031 L 48.117188 47.296875 L 48.699219 47.035156 C 48.945312 46.925781 49.230469 46.972656 49.429688 47.148438 C 49.785156 47.457031 50.191406 47.691406 50.632812 47.84375 C 50.886719 47.929688 51.066406 48.152344 51.09375 48.421875 L 51.160156 49.054688 L 52.421875 49.054688 L 52.484375 48.421875 C 52.511719 48.152344 52.691406 47.929688 52.945312 47.84375 C 53.386719 47.691406 53.792969 47.457031 54.148438 47.148438 C 54.351562 46.972656 54.636719 46.925781 54.878906 47.035156 L 55.464844 47.296875 Z M 54.542969 44.449219 C 54.542969 45.96875 53.308594 47.203125 51.789062 47.203125 C 50.269531 47.203125 49.035156 45.96875 49.035156 44.449219 C 49.035156 42.929688 50.269531 41.695312 51.789062 41.695312 C 53.308594 41.695312 54.542969 42.929688 54.542969 44.449219 Z M 53.171875 44.449219 C 53.171875 43.6875 52.554688 43.066406 51.789062 43.066406 C 51.023438 43.066406 50.40625 43.6875 50.40625 44.449219 C 50.40625 45.214844 51.023438 45.835938 51.789062 45.835938 C 52.554688 45.835938 53.171875 45.214844 53.171875 44.449219 Z M 54.222656 21.621094 L 54.222656 23.023438 C 54.222656 23.734375 53.640625 24.3125 52.929688 24.3125 L 43.15625 24.3125 C 42.441406 24.3125 41.863281 23.734375 41.863281 23.023438 L 41.863281 21.621094 C 41.863281 20.910156 42.441406 20.332031 43.15625 20.332031 L 52.929688 20.332031 C 53.640625 20.332031 54.222656 20.910156 54.222656 21.621094 Z M 52.851562 21.703125 L 43.234375 21.703125 L 43.234375 22.945312 L 52.851562 22.945312 Z M 52.617188 25.667969 L 43.46875 25.667969 C 43.089844 25.667969 42.785156 25.972656 42.785156 26.351562 C 42.785156 26.730469 43.089844 27.035156 43.46875 27.035156 L 52.617188 27.035156 C 52.992188 27.035156 53.300781 26.730469 53.300781 26.351562 C 53.300781 25.972656 52.992188 25.667969 52.617188 25.667969 Z M 52.617188 28.382812 L 43.46875 28.382812 C 43.089844 28.382812 42.785156 28.691406 42.785156 29.066406 C 42.785156 29.445312 43.089844 29.753906 43.46875 29.753906 L 52.617188 29.753906 C 52.992188 29.753906 53.300781 29.445312 53.300781 29.066406 C 53.300781 28.691406 52.992188 28.382812 52.617188 28.382812 Z M 52.617188 31.101562 L 43.46875 31.101562 C 43.089844 31.101562 42.785156 31.40625 42.785156 31.785156 C 42.785156 32.164062 43.089844 32.46875 43.46875 32.46875 L 52.617188 32.46875 C 52.992188 32.46875 53.300781 32.164062 53.300781 31.785156 C 53.300781 31.40625 52.992188 31.101562 52.617188 31.101562 Z M 52.617188 31.101562 " fill-opacity="1" fill-rule="nonzero"/></g></svg>